<svg width="64" height="64" viewBox="0 0 64 64" fill="none" xmlns="http://www.w3.org/2000/svg">
<path d="M15.36 35.0881C15.36 33.2321 15.936 31.6001 17.104 30.1601C18.256 28.7201 19.744 27.7921 21.552 27.3921C22.016 25.1841 23.12 23.3921 24.864 21.9681C26.608 20.5441 28.608 19.8401 30.88 19.8401C33.104 19.8401 35.088 20.5281 36.832 21.8881C38.56 23.2481 39.696 25.0081 40.224 27.1681H40.768C42.208 27.1681 43.536 27.5201 44.736 28.2241C45.952 28.9281 46.896 29.8881 47.6 31.1041C48.288 32.3201 48.64 33.6481 48.64 35.0881C48.64 37.2321 47.904 39.0561 46.448 40.5921C44.976 42.1281 43.184 42.9281 41.056 42.9921C40.864 42.9921 40.768 42.8961 40.768 42.7201V40.5761C40.768 40.4001 40.864 40.3041 41.056 40.3041C42.4 40.1921 43.568 39.6321 44.528 38.6241C45.488 37.6161 45.968 36.4321 45.968 35.0721C45.968 33.6481 45.456 32.4161 44.432 31.3761C43.408 30.3521 42.192 29.8241 40.768 29.8241H38.16C37.968 29.8241 37.856 29.7281 37.808 29.5361L37.696 28.6241C37.584 27.4881 37.216 26.4481 36.576 25.5201C35.9442 24.5991 35.0958 23.8475 34.1053 23.3314C33.1149 22.8152 32.0128 22.5504 30.896 22.5601C29.136 22.5601 27.616 23.1361 26.32 24.3041C25.024 25.4721 24.288 26.9281 24.128 28.6561L24.016 29.5201C24.016 29.6641 23.936 29.7441 23.76 29.7441L22.896 29.9201C21.552 30.0321 20.416 30.5761 19.52 31.5681C18.608 32.5601 18.16 33.7281 18.16 35.0881C18.16 36.4801 18.64 37.6801 19.584 38.6881C20.528 39.6961 21.68 40.2401 23.056 40.3201C23.248 40.3201 23.344 40.4161 23.344 40.5921V42.7361C23.344 42.9121 23.248 43.0081 23.056 43.0081C22 42.9601 21.008 42.7201 20.048 42.2881C19.088 41.8561 18.272 41.2801 17.6 40.5761C16.912 39.8721 16.368 39.0561 15.968 38.0961C15.568 37.1361 15.36 36.1441 15.36 35.0881ZM24.032 45.9201C24.032 45.8721 24.048 45.7921 24.064 45.7121C24.08 45.6321 24.096 45.5681 24.096 45.5361L24.528 43.8881C24.64 43.5361 24.848 43.2481 25.168 43.0721C25.488 42.8801 25.824 42.8481 26.192 42.9601C26.56 43.0721 26.832 43.2801 27.024 43.6001C27.216 43.9201 27.248 44.2561 27.136 44.6241L26.752 46.2401C26.544 46.9441 26.144 47.2961 25.536 47.2961H25.392C25.344 47.2961 25.28 47.2801 25.216 47.2801C25.152 47.2641 25.104 47.2641 25.056 47.2641C24.72 47.1681 24.464 46.9761 24.288 46.7201C24.112 46.4641 24.032 46.1761 24.032 45.9201ZM26.144 38.2081C26.144 38.1761 26.144 38.1121 26.16 38.0321C26.176 37.9521 26.176 37.9041 26.176 37.8881L26.656 36.2081C26.752 35.9041 26.928 35.6641 27.168 35.4881C27.408 35.3281 27.664 35.2481 27.92 35.2481H28.048C28.096 35.2481 28.144 35.2641 28.192 35.2641C28.24 35.2801 28.288 35.2801 28.32 35.2801C28.688 35.3921 28.96 35.6001 29.136 35.9201C29.328 36.2401 29.36 36.5761 29.248 36.9441L28.864 38.5441C28.752 38.9921 28.544 39.2961 28.224 39.4881C27.904 39.6801 27.552 39.6801 27.184 39.5201C26.832 39.4241 26.576 39.2481 26.4 38.9761C26.224 38.7041 26.144 38.4641 26.144 38.2081ZM28.112 50.9281C28.112 50.8801 28.128 50.8161 28.144 50.7201C28.16 50.6241 28.176 50.5761 28.176 50.5281L28.64 48.9441C28.736 48.5601 28.96 48.2721 29.28 48.0801C29.6 47.8881 29.952 47.8401 30.32 47.9521C30.688 48.0641 30.944 48.2721 31.136 48.6081C31.328 48.9441 31.344 49.2801 31.248 49.6481L30.848 51.3121C30.672 51.9681 30.256 52.2881 29.568 52.2881C29.488 52.2881 29.36 52.2721 29.184 52.2241C29.0274 52.2022 28.8769 52.1483 28.742 52.0657C28.6072 51.9831 28.4907 51.8736 28.4 51.7441C28.2167 51.5113 28.1154 51.2244 28.112 50.9281ZM30.256 43.2961C30.256 43.2001 30.272 43.0721 30.32 42.8961L30.752 41.2481C30.864 40.8801 31.072 40.6081 31.408 40.4321C31.728 40.2401 32.08 40.2081 32.448 40.3201C32.6212 40.3627 32.7837 40.4409 32.9251 40.5496C33.0665 40.6583 33.1839 40.7953 33.2696 40.9517C33.3553 41.1081 33.4076 41.2807 33.4232 41.4584C33.4388 41.6361 33.4172 41.8151 33.36 41.9841L32.976 43.5681C32.768 44.2881 32.384 44.6561 31.824 44.6561C31.76 44.6561 31.584 44.6241 31.328 44.5601C31.1714 44.5382 31.0209 44.4843 30.886 44.4017C30.7512 44.3191 30.6347 44.2096 30.544 44.0801C30.3608 43.8596 30.2591 43.5827 30.256 43.2961ZM34.768 45.9841C34.768 45.8721 34.784 45.7441 34.816 45.6001L35.264 44.0161C35.376 43.6321 35.584 43.3441 35.92 43.1521C36.256 42.9601 36.576 42.9121 36.928 43.0081C37.296 43.1201 37.584 43.3281 37.776 43.6641C37.968 43.9841 38.016 44.3201 37.92 44.6721L37.456 46.3681C37.296 47.0241 36.88 47.3441 36.192 47.3441C36.048 47.3441 35.904 47.3281 35.776 47.2961C35.6273 47.2698 35.4854 47.2138 35.3589 47.1313C35.2325 47.0488 35.124 46.9416 35.04 46.8161C34.88 46.5281 34.784 46.2561 34.768 45.9841ZM36.976 38.3681C36.976 38.3201 37.008 38.1761 37.056 37.9521L37.536 36.3041C37.6 35.9681 37.744 35.7121 38 35.5521C38.256 35.3921 38.512 35.3121 38.784 35.3281C38.848 35.3121 38.992 35.3281 39.168 35.3761C39.52 35.4561 39.792 35.6641 40 35.9841C40.192 36.2561 40.224 36.5921 40.112 37.0241L39.728 38.6721C39.52 39.3601 39.12 39.7121 38.512 39.7121C38.416 39.7121 38.24 39.6801 37.968 39.6161C37.6885 39.5459 37.44 39.3856 37.2607 39.16C37.0814 38.9345 36.9814 38.6562 36.976 38.3681Z" fill="black"/>
</svg>
