<svg width="64" height="64" viewBox="0 0 64 64" fill="none" xmlns="http://www.w3.org/2000/svg">
<path d="M32 32.9166H21V34.7499H32V32.9166ZM43 32.9166H32V34.7499H43V32.9166ZM47.5834 28.3333C47.5834 28.9351 47.4648 29.5311 47.2345 30.0872C47.0042 30.6433 46.6665 31.1486 46.2409 31.5742C45.8153 31.9998 45.3101 32.3374 44.754 32.5677C44.1979 32.798 43.6019 32.9166 43 32.9166V34.7499C44.7018 34.7499 46.334 34.0739 47.5373 32.8705C48.7407 31.6672 49.4167 30.0351 49.4167 28.3333H47.5834ZM43 23.7499C43.6019 23.7499 44.1979 23.8685 44.754 24.0988C45.3101 24.3291 45.8153 24.6667 46.2409 25.0923C46.6665 25.5179 47.0042 26.0232 47.2345 26.5793C47.4648 27.1354 47.5834 27.7314 47.5834 28.3333H49.4167C49.4167 26.6314 48.7407 24.9993 47.5373 23.796C46.334 22.5926 44.7018 21.9166 43 21.9166V23.7499ZM41.2034 20.5416C40.4076 18.7665 39.1153 17.2595 37.4823 16.2023C35.8493 15.1451 33.9454 14.5828 32 14.5833V16.4166C33.5921 16.4161 35.1503 16.8763 36.4866 17.7416C37.823 18.6069 38.8804 19.8404 39.5314 21.2933L41.2034 20.5416ZM32 14.5833C30.0547 14.5828 28.1508 15.1451 26.5178 16.2023C24.8848 17.2595 23.5925 18.7665 22.7967 20.5416L24.4687 21.2933C25.1197 19.8404 26.1771 18.6069 27.5135 17.7416C28.8498 16.8763 30.408 16.4161 32 16.4166V14.5833ZM21 21.9166C19.2982 21.9166 17.6661 22.5926 16.4628 23.796C15.2594 24.9993 14.5834 26.6314 14.5834 28.3333H16.4167C16.4167 27.1177 16.8996 25.9519 17.7591 25.0923C18.6187 24.2328 19.7845 23.7499 21 23.7499V21.9166ZM14.5834 28.3333C14.5834 30.0351 15.2594 31.6672 16.4628 32.8705C17.6661 34.0739 19.2982 34.7499 21 34.7499V32.9166C19.7845 32.9166 18.6187 32.4337 17.7591 31.5742C16.8996 30.7146 16.4167 29.5488 16.4167 28.3333H14.5834ZM22.7967 20.5416C22.4135 21.3923 21.7059 21.9166 21 21.9166V23.7499C22.6409 23.7499 23.8912 22.5821 24.4687 21.2933L22.7967 20.5416ZM43 21.9166C42.2942 21.9166 41.5865 21.3923 41.2034 20.5416L39.5314 21.2933C40.1107 22.5821 41.3592 23.7499 43 23.7499V21.9166Z" fill="black"/>
<path d="M32 44.8332V41.1665M41.1667 46.6665V41.1665M22.8334 48.4998V41.1665" stroke="black" stroke-linecap="round"/>
</svg>
