<svg width="64" height="64" viewBox="0 0 64 64" fill="none" xmlns="http://www.w3.org/2000/svg">
<path d="M32 41V38.75C32.8696 38.674 33.6845 38.294 34.3017 37.6767C34.919 37.0595 35.299 36.2446 35.375 35.375H37.625C37.5523 36.8433 36.9363 38.2322 35.8968 39.2718C34.8572 40.3113 33.4683 40.9273 32 41Z" fill="black"/>
<path d="M32 45.4999C29.3156 45.497 26.742 44.4293 24.8438 42.5311C22.9457 40.633 21.878 38.0593 21.875 35.3749C21.9364 33.4015 22.5161 31.479 23.5558 29.8006L31.0471 17.8666C31.1553 17.7147 31.2983 17.5909 31.464 17.5055C31.6298 17.4201 31.8135 17.3755 32 17.3755C32.1865 17.3755 32.3702 17.4201 32.536 17.5055C32.7017 17.5909 32.8447 17.7147 32.9529 17.8666L40.4116 29.7421C41.4697 31.4357 42.0608 33.379 42.125 35.3749C42.122 38.0593 41.0543 40.633 39.1562 42.5311C37.258 44.4293 34.6844 45.497 32 45.4999ZM32 20.5789L25.4953 30.9379C24.6582 32.2716 24.1858 33.8015 24.125 35.3749C24.125 37.4635 24.9547 39.4666 26.4315 40.9434C27.9084 42.4203 29.9114 43.2499 32 43.2499C34.0886 43.2499 36.0916 42.4203 37.5685 40.9434C39.0453 39.4666 39.875 37.4635 39.875 35.3749C39.8109 33.7793 39.3266 32.2289 38.471 30.8806L32 20.5789Z" fill="black"/>
</svg>
