<svg width="64" height="64" viewBox="0 0 64 64" fill="none" xmlns="http://www.w3.org/2000/svg">
<path d="M40.4375 38.7499H39.875V36.4999H40.4375C41.7801 36.5536 43.0891 36.0717 44.0765 35.1603C45.0639 34.2489 45.6488 32.9825 45.7025 31.6399C45.7562 30.2972 45.2743 28.9882 44.3629 28.0008C43.4515 27.0135 42.1851 26.4286 40.8425 26.3749H39.875L39.7625 25.4524C39.5129 23.5584 38.5833 21.8197 37.1469 20.5602C35.7106 19.3007 33.8653 18.6063 31.955 18.6063C30.0446 18.6063 28.1994 19.3007 26.763 20.5602C25.3266 21.8197 24.3971 23.5584 24.1475 25.4524L24.125 26.3749H23.1575C21.8148 26.4286 20.5485 27.0135 19.637 28.0008C18.7256 28.9882 18.2438 30.2972 18.2975 31.6399C18.3512 32.9825 18.936 34.2489 19.9234 35.1603C20.9108 36.0717 22.2198 36.5536 23.5625 36.4999H24.125V38.7499H23.5625C21.7584 38.7385 20.0223 38.0605 18.6878 36.8465C17.3534 35.6324 16.5148 33.9679 16.3334 32.173C16.1519 30.3781 16.6404 28.5794 17.7049 27.1228C18.7694 25.6663 20.3347 24.6546 22.1 24.2824C22.5856 22.0172 23.8334 19.9871 25.6351 18.5308C27.4367 17.0745 29.6833 16.28 32 16.28C34.3166 16.28 36.5632 17.0745 38.3649 18.5308C40.1665 19.9871 41.4143 22.0172 41.9 24.2824C43.6652 24.6546 45.2306 25.6663 46.295 27.1228C47.3595 28.5794 47.848 30.3781 47.6666 32.173C47.4851 33.9679 46.6466 35.6324 45.3121 36.8465C43.9776 38.0605 42.2415 38.7385 40.4375 38.7499Z" fill="black"/>
<path d="M31.8537 48.3125L29.8962 47.1875L33.4399 41H26.6899L32.1462 31.4375L34.1037 32.5625L30.5599 38.75H37.3099L31.8537 48.3125Z" fill="black"/>
</svg>
