<svg width="64" height="64" viewBox="0 0 64 64" fill="none" xmlns="http://www.w3.org/2000/svg">
<g clip-path="url(#clip0_835_511)">
<path d="M49.9283 10C49.4951 10 49.0416 10.1455 48.7116 10.4755L48.0245 11.2168L47.7063 10.9528C47.6278 10.8708 47.5335 10.8055 47.4291 10.7609C47.3247 10.7163 47.2123 10.6933 47.0988 10.6933C46.9853 10.6933 46.8729 10.7163 46.7685 10.7609C46.6641 10.8055 46.5698 10.8708 46.4913 10.9528C46.4092 11.0313 46.344 11.1256 46.2994 11.23C46.2548 11.3344 46.2318 11.4468 46.2318 11.5603C46.2318 11.6738 46.2548 11.7862 46.2994 11.8906C46.344 11.995 46.4092 12.0893 46.4913 12.1678L46.7553 12.486L46.3322 12.9091L46.014 12.6434C45.9355 12.5614 45.8412 12.4961 45.7368 12.4515C45.6324 12.4069 45.52 12.384 45.4065 12.384C45.2929 12.384 45.1806 12.4069 45.0762 12.4515C44.9718 12.4961 44.8775 12.5614 44.7989 12.6434C44.7164 12.7219 44.6507 12.8165 44.6058 12.9212C44.5609 13.0259 44.5377 13.1387 44.5377 13.2526C44.5377 13.3666 44.5609 13.4793 44.6058 13.5841C44.6507 13.6888 44.7164 13.7833 44.7989 13.8618L45.0629 14.1783L44.7448 14.4948C44.5396 14.6979 44.3922 14.952 44.3178 15.231C44.2435 15.5101 44.2448 15.8038 44.3217 16.0822L36.9179 23.486C35.3897 22.1491 33.078 20.5769 30.5717 20.5769C29.4599 20.5769 28.3176 20.9154 27.1871 21.6871C24.6791 23.4014 25.1597 25.9991 23.5909 27.5052C21.8309 29.1975 17.0197 27.8335 12.5909 32.264C8.16218 36.6911 10.1253 42.8155 15.764 48.236C19.1453 51.7526 22.7837 53.8409 26.1294 53.8409C28.1449 53.8409 30.0691 53.076 31.736 51.4091C36.1648 46.9803 34.8008 42.1725 36.4948 40.4091C38.0009 38.8437 40.6494 39.3751 42.3654 36.8654C44.8819 33.188 42.4534 29.2991 40.514 27.0822L47.9179 19.6783C48.4763 19.8205 49.0669 19.6935 49.5053 19.2552L49.8217 18.9371L50.1399 19.2028C50.2125 19.2853 50.3018 19.3514 50.4018 19.3969C50.5019 19.4424 50.6104 19.4662 50.7203 19.4668C50.9584 19.4643 51.1861 19.3689 51.3549 19.2011C51.437 19.1226 51.5022 19.0283 51.5468 18.9238C51.5914 18.8194 51.6144 18.7071 51.6144 18.5935C51.6144 18.48 51.5914 18.3676 51.5468 18.2632C51.5022 18.1588 51.437 18.0645 51.3549 17.986L51.0909 17.6678L51.514 17.2448L51.8322 17.5105C51.9048 17.593 51.9941 17.6591 52.0941 17.7046C52.1942 17.7501 52.3027 17.7739 52.4126 17.7745C52.6507 17.7719 52.8784 17.6766 53.0473 17.5088C53.1293 17.4303 53.1945 17.336 53.2391 17.2315C53.2837 17.1271 53.3067 17.0148 53.3067 16.9012C53.3067 16.7877 53.2837 16.6753 53.2391 16.5709C53.1945 16.4665 53.1293 16.3722 53.0473 16.2937L52.7833 15.9755L53.5245 15.2885C53.6816 15.1327 53.8062 14.9474 53.8913 14.7432C53.9764 14.539 54.0202 14.32 54.0202 14.0988C54.0202 13.8776 53.9764 13.6585 53.8913 13.4543C53.8062 13.2502 53.6816 13.0648 53.5245 12.9091L51.0893 10.4738C50.9379 10.3203 50.757 10.1992 50.5574 10.1177C50.3579 10.0363 50.1438 9.99621 49.9283 10ZM49.8217 12.0105C49.952 12.0105 50.0925 12.0172 50.1923 12.1154C50.2877 12.2152 50.3409 12.3479 50.3409 12.486C50.3409 12.6241 50.2877 12.7568 50.1923 12.8566L46.8077 16.2412C46.709 16.3394 46.5763 16.3957 46.4371 16.3986C46.2983 16.3949 46.1662 16.3379 46.0682 16.2395C45.9733 16.1398 45.9204 16.0074 45.9204 15.8698C45.9204 15.7321 45.9733 15.5997 46.0682 15.5L49.4528 12.1154C49.5509 12.0172 49.6931 12.0105 49.8217 12.0105ZM51.514 13.7028C51.6443 13.7028 51.7848 13.7078 51.8846 13.8077C51.9804 13.9073 52.0339 14.0401 52.0339 14.1783C52.0339 14.3165 51.9804 14.4493 51.8846 14.5489L48.5 17.9335C48.4013 18.0317 48.2686 18.088 48.1294 18.0909C47.9908 18.0876 47.8588 18.0313 47.7605 17.9335C47.6651 17.8337 47.6119 17.701 47.6119 17.5629C47.6119 17.4249 47.6651 17.2921 47.7605 17.1923L51.1451 13.8077C51.2433 13.7095 51.3854 13.7028 51.514 13.7028ZM30.5717 22.9546C32.1963 22.9546 33.9123 24.058 35.2256 25.1766L29.5665 30.8357C29.4413 30.8222 29.3262 30.7815 29.1976 30.7815C28.1327 30.7851 27.1125 31.2097 26.3595 31.9627C25.6065 32.7157 25.1819 33.7359 25.1783 34.8008C25.1819 35.8656 25.6065 36.8859 26.3595 37.6389C27.1125 38.3918 28.1327 38.8164 29.1976 38.82C30.2624 38.8164 31.2827 38.3918 32.0356 37.6389C32.7886 36.8859 33.2132 35.8656 33.2168 34.8008C33.2168 34.6722 33.1762 34.5571 33.1643 34.4302L38.8742 28.7203C40.3431 30.4228 42.0016 33.1609 40.4091 35.4895C39.8913 36.2443 39.2397 36.5218 38.0822 36.9162C37.0634 37.2631 35.7891 37.6862 34.75 38.7675C33.6094 39.9538 33.3556 41.5142 33.0577 43.1574C32.682 45.2203 32.2606 47.5523 30.0437 49.7675C28.8794 50.9318 27.5966 51.5123 26.1294 51.5123C23.5622 51.5123 20.4822 49.7422 17.4563 46.5945L17.4039 46.542C14.2816 43.5449 12.5114 40.4785 12.486 37.9231C12.4691 36.4322 13.0513 35.1392 14.2308 33.9563C16.4477 31.7394 18.7797 31.3163 20.8409 30.9423C22.4842 30.6445 24.0462 30.3382 25.2308 29.1975C26.3037 28.1686 26.7285 26.9248 27.0822 25.9178C27.4883 24.7637 27.7422 24.168 28.5105 23.6434C29.1671 23.1949 29.8474 22.9546 30.5717 22.9546ZM19.4126 37.5508C19.2738 37.5545 19.1417 37.6115 19.0437 37.7098L17.986 38.7692C17.8891 38.8682 17.8348 39.0013 17.8348 39.1398C17.8348 39.2784 17.8891 39.4115 17.986 39.5105L24.4896 46.014C24.6893 46.212 25.0311 46.212 25.2308 46.014L26.2885 44.9563C26.3841 44.857 26.4376 44.7244 26.4376 44.5865C26.4376 44.4486 26.3841 44.3161 26.2885 44.2168L19.7833 37.7115C19.6852 37.6132 19.5532 37.5562 19.4143 37.5525L19.4126 37.5508Z" fill="black"/>
</g>
<defs>
<clipPath id="clip0_835_511">
<rect width="44" height="44" fill="white" transform="translate(10 10)"/>
</clipPath>
</defs>
</svg>
