<svg width="64" height="64" viewBox="0 0 64 64" fill="none" xmlns="http://www.w3.org/2000/svg">
<g clip-path="url(#clip0_832_443)">
<path fill-rule="evenodd" clip-rule="evenodd" d="M44.1537 34.2736C42.4279 34.0994 42.5704 34.2736 42.6495 34.0994C43.8171 32.6965 44.4707 30.9369 44.502 29.1119C44.394 28.1736 44.2301 27.2425 44.0112 26.3237C43.8054 26.1178 43.5837 26.197 43.3779 26.3237C43.172 26.4503 43.0929 28.7462 42.8554 30.3295C42.5862 31.4774 42.143 32.5773 41.5412 33.5912C41.4663 33.6416 41.4052 33.7101 41.3637 33.7904C41.3222 33.8706 41.3016 33.96 41.3037 34.0503C38.6661 33.9127 36.0231 33.9127 33.3855 34.0503C23.9773 34.4462 15.3307 34.0503 14.0165 37.8519C13.6347 39.4053 13.5328 41.0144 13.7157 42.6035C14.0007 46.546 13.9057 47.8459 18.8932 47.9568C17.7849 49.1284 18.4024 50.6959 18.8932 50.7751C19.7007 50.9018 20.0649 49.1918 19.9382 48.0201C25.0559 48.3906 30.1908 48.4646 35.3171 48.2418C37.8663 48.2418 40.3205 48.4318 42.887 48.2418C42.4595 50.6326 45.0245 53.0868 44.4704 48.0834C45.9538 48.0607 47.3781 47.4978 48.4762 46.5001C49.1627 45.5261 49.6481 44.4249 49.9039 43.261C50.1598 42.0972 50.1809 40.894 49.9661 39.7218C49.6653 36.4443 49.1412 34.7961 44.1537 34.2736ZM48.0345 43.4743C47.8753 44.1718 47.5554 44.8224 47.1003 45.3743C45.707 46.9577 38.3603 46.451 35.287 46.4827C32.5795 46.4827 29.8879 46.7043 27.1788 46.7518C26.1021 46.7518 17.169 46.7518 15.934 46.166C14.699 45.5802 15.0473 43.696 14.9681 42.5877C14.7428 41.1249 14.7857 39.6334 15.0948 38.186C15.7123 36.2385 15.934 35.7952 33.482 35.4152C35.5562 35.4152 43.8861 35.4152 46.5794 36.4602C46.8736 36.5515 47.1439 36.7067 47.3711 36.9148C47.5983 37.1228 47.7767 37.3785 47.8935 37.6635C48.3066 39.5742 48.3534 41.5457 48.0345 43.4743Z" fill="black"/>
<path fill-rule="evenodd" clip-rule="evenodd" d="M34.6363 38.9936C34.2088 38.9144 27.2405 38.6611 23.5498 38.8036C18.7998 38.9777 18.024 39.1836 17.7073 41.0202C17.5085 41.7196 17.4494 42.4513 17.5331 43.1736C17.9448 44.7569 20.3673 44.2819 22.8531 44.2977C26.0198 44.2977 27.4923 44.5036 31.1672 44.4244C34.8405 44.3452 35.3789 44.4244 35.8238 43.6011C36.2687 42.7777 36.3463 39.2944 34.6363 38.9936ZM34.2563 42.4769C33.8446 42.5719 34.2563 42.4769 22.8215 42.9044C17.4856 43.1261 18.5623 43.4902 18.689 41.1627C18.689 40.0544 19.2748 40.2919 20.589 40.2286C22.5681 40.0227 24.56 39.9958 26.5423 40.1494C29.3305 40.2919 33.0846 40.5927 33.6546 40.6402C34.2246 40.6877 34.573 40.6561 34.2563 42.4769ZM41.1929 43.2052C42.7762 44.0602 44.9929 43.7436 45.2779 41.5269C46.0695 34.6394 35.0812 39.9277 41.1929 43.2052ZM43.9004 41.2736C43.6787 42.2077 42.7287 42.0177 42.032 41.6377C41.3354 41.2577 40.8762 40.6244 41.5412 39.9277C41.6679 39.9277 43.552 38.2336 43.9004 40.5769V41.2736ZM17.2149 33.387C17.297 33.4641 17.4038 33.5095 17.5162 33.5151C17.6287 33.5208 17.7395 33.4863 17.8289 33.4178C17.9183 33.3494 17.9804 33.2514 18.0043 33.1413C18.0281 33.0313 18.0121 32.9163 17.959 32.817C16.3757 30.632 15.9007 25.1046 18.4182 20.9072C19.6397 19.0054 21.3098 17.433 23.2817 16.3284C25.2535 15.2237 27.4667 14.6207 29.7264 14.5722C37.2963 14.3347 38.7213 19.3222 39.7679 18.1822C39.8172 18.1336 39.8563 18.0757 39.8831 18.0118C39.9098 17.948 39.9236 17.8794 39.9236 17.8102C39.9236 17.7409 39.9098 17.6724 39.8831 17.6085C39.8563 17.5446 39.8172 17.4867 39.7679 17.4381C39.0237 16.8206 38.3745 16.1714 37.6779 15.6331C31.6739 10.8514 20.9531 12.7356 16.9457 20.0506C14.444 24.6122 15.204 30.8996 17.2149 33.387ZM50.1561 16.2981C49.982 15.0947 49.7128 13.9864 48.5728 13.5589C47.5194 13.3068 46.4141 13.3841 45.4061 13.7806C43.8228 14.1922 41.747 14.5722 41.2404 16.2506C40.902 17.746 40.8217 19.2881 41.0029 20.8106C40.3059 20.6962 39.5908 20.8182 38.9711 21.157C38.3514 21.4958 37.8628 22.0321 37.5829 22.6805C36.3637 25.8472 41.6362 27.8754 42.5229 22.9497C42.8237 21.1763 42.412 18.4688 42.9504 16.7747C43.0612 16.3788 43.5045 16.2047 43.9479 16.0463C45.0428 15.6883 46.1585 15.3969 47.2887 15.1739C48.0487 15.0789 48.1279 15.2847 48.2387 15.5539C48.5395 16.6575 48.7311 17.7864 48.8103 18.9264C48.2031 18.8244 47.5795 18.9443 47.0533 19.264C46.5272 19.5838 46.1336 20.0821 45.9445 20.6681C45.8408 20.9859 45.8201 21.325 45.8843 21.6531C45.9484 21.9812 46.0952 22.2876 46.3109 22.543C46.5266 22.7985 46.8039 22.9947 47.1166 23.1129C47.4293 23.2312 47.767 23.2676 48.0978 23.2188C50.7103 22.633 50.5361 18.9122 50.1561 16.2997M39.9579 24.4871C39.7735 24.5282 39.5815 24.5185 39.4023 24.4592C39.223 24.3999 39.0631 24.2931 38.9397 24.1501C38.8163 24.0072 38.7339 23.8335 38.7013 23.6475C38.6687 23.4615 38.6871 23.2701 38.7545 23.0937C38.9305 22.6445 39.2576 22.2706 39.6796 22.0365C40.1015 21.8024 40.5919 21.7228 41.0662 21.8112C41.0504 22.7929 40.9237 24.2971 39.9579 24.4871ZM47.352 21.7479C46.7979 20.9404 47.352 20.0379 48.5712 20.0221H48.842C48.6836 22.0012 47.6545 22.1754 47.3536 21.7479" fill="black"/>
<path fill-rule="evenodd" clip-rule="evenodd" d="M27.0188 31.6137C28.1908 32.134 29.4996 32.2609 30.7497 31.9755C31.9998 31.6901 33.1238 31.0077 33.9538 30.0304C34.7617 28.9875 35.1338 27.6721 34.9921 26.3605C34.8504 25.049 34.2058 23.8434 33.1938 22.9972C26.1163 18.3105 20.9531 28.6513 27.0188 31.6137ZM32.6872 29.0012C32.059 29.6337 31.2576 30.0659 30.3841 30.2435C29.5106 30.421 28.604 30.3358 27.7788 29.9987C25.198 28.8429 25.5463 24.7547 28.0955 23.3297C28.8281 23.0934 29.6056 23.0305 30.3667 23.1459C31.1278 23.2613 31.8517 23.5519 32.4813 23.9947C33.1392 24.6499 33.5257 25.5292 33.5639 26.4569C33.6021 27.3846 33.289 28.2926 32.6872 28.9996" fill="black"/>
</g>
<defs>
<clipPath id="clip0_832_443">
<rect width="38" height="38" fill="white" transform="translate(13 13)"/>
</clipPath>
</defs>
</svg>
