<svg width="64" height="64" viewBox="0 0 64 64" fill="none" xmlns="http://www.w3.org/2000/svg">
<path d="M18.168 49.3334C17.1698 49.3334 16.3371 48.9997 15.6698 48.3324C15.0025 47.6651 14.6681 46.8316 14.6666 45.8321V18.1681C14.6666 17.17 15.001 16.3372 15.6698 15.6699C16.3386 15.0026 17.1713 14.6682 18.168 14.6667H45.8341C46.8308 14.6667 47.6635 15.0011 48.3323 15.6699C49.0011 16.3387 49.3347 17.1714 49.3333 18.1681V45.8342C49.3333 46.8309 48.9996 47.6636 48.3323 48.3324C47.665 49.0012 46.8315 49.3349 45.832 49.3334H18.168ZM18.168 47.1667H24.7503V36.7494H23.875C23.3448 36.7494 22.9065 36.5768 22.5598 36.2316C22.2131 35.8849 22.0398 35.4465 22.0398 34.9164V16.8334H18.1701C17.7801 16.8334 17.4602 16.9584 17.2103 17.2082C16.9604 17.4581 16.8347 17.7781 16.8333 18.1681V45.8342C16.8333 46.2228 16.9582 46.542 17.2081 46.7919C17.458 47.0418 17.778 47.1667 18.168 47.1667ZM39.2496 47.1667H45.8341C46.2227 47.1667 46.5419 47.0418 46.7918 46.7919C47.0417 46.542 47.1666 46.2221 47.1666 45.8321V18.1681C47.1666 17.7781 47.0417 17.4581 46.7918 17.2082C46.5419 16.9584 46.2227 16.8334 45.8341 16.8334H41.958V34.9164C41.958 35.448 41.7846 35.8864 41.438 36.2316C41.0927 36.5782 40.6551 36.7516 40.125 36.7516H39.2496V47.1667ZM26.67 47.1667H37.3365V36.7494H36.4611C35.931 36.7494 35.4926 36.5768 35.146 36.2316C34.7993 35.8849 34.626 35.4465 34.626 34.9164V16.8334H29.3783V34.9164C29.3783 35.448 29.205 35.8864 28.8583 36.2316C28.5116 36.5782 28.0732 36.7516 27.5431 36.7516H26.67V47.1667Z" fill="black"/>
</svg>
