<svg width="64" height="64" viewBox="0 0 64 64" fill="none" xmlns="http://www.w3.org/2000/svg">
<path d="M28.2383 14.1758C27.9078 14.4992 27.9852 14.675 28.7867 15.4836C29.4266 16.1305 29.5602 16.2992 29.8836 16.9531L30.2563 17.6914L30.0313 17.7828C29.8344 17.8601 29.7922 17.8531 29.5883 17.6984C29.2578 17.4594 28.8711 17.3539 28.4492 17.3961C27.9992 17.4383 27.725 17.5789 27.4016 17.9094C26.9305 18.3945 26.818 19.1187 27.1133 19.7586L27.2961 20.1453L27.0852 20.539C26.7617 21.1367 26.4031 22.2898 26.1992 23.3515C26.1008 23.8719 25.9953 24.3851 25.9672 24.4906C25.918 24.6804 25.8969 24.6594 24.7227 23.6539C24.0688 23.0914 23.4219 22.5359 23.2883 22.4234L23.0492 22.2125L23.3094 20.6305C23.457 19.7656 23.5555 18.9851 23.5344 18.9008C23.5133 18.8164 22.9297 18.1836 22.2406 17.4945C21.1367 16.3976 20.9609 16.25 20.757 16.25C20.4547 16.25 20.1875 16.5172 20.1875 16.8195C20.1875 17.0234 20.3211 17.1851 21.2914 18.1555L22.3883 19.2664L22.1281 20.8555C21.9805 21.7344 21.882 22.5148 21.9031 22.5992C21.9242 22.6906 22.7188 23.4219 23.7734 24.3289C24.7859 25.1937 25.6297 25.9461 25.6508 25.9953C25.6719 26.0445 25.4469 26.8883 25.1586 27.8656C24.8633 28.8429 24.582 29.7992 24.5328 29.9961L24.4414 30.3406L22.7539 30.6289C21.8258 30.7836 21.0313 30.9312 20.982 30.9664C20.9398 30.9945 20.4195 31.8594 19.8289 32.8929C19.2453 33.9336 18.7391 34.8054 18.7109 34.8336C18.6828 34.8687 18.1695 35.0164 17.5789 35.164C16.4117 35.4594 16.25 35.5578 16.25 35.9515C16.25 36.1906 16.5242 36.5 16.7422 36.5C16.9109 36.5 19.0906 35.9656 19.3156 35.8742C19.4141 35.832 19.8641 35.1148 20.5672 33.8773L21.6711 31.9508L22.9297 31.7398C23.7805 31.5992 24.1953 31.557 24.1953 31.6133C24.1953 31.6554 24.0688 32.3656 23.9211 33.1953C23.7664 34.025 23.5766 35.1219 23.4852 35.6211L23.3305 36.5351L21.5375 37.7304C20.5531 38.3844 19.7234 38.989 19.6883 39.0664C19.6391 39.1789 19.1328 42.5609 19.1328 42.7648C19.1328 42.7929 18.7813 42.9336 18.3594 43.0742C17.5367 43.3484 17.375 43.475 17.375 43.8336C17.375 44.0726 17.6563 44.375 17.8813 44.375C17.9727 44.375 18.4789 44.2273 19.0133 44.0515C19.7023 43.8195 20.0117 43.6859 20.075 43.5805C20.1313 43.4961 20.293 42.575 20.4406 41.5344L20.7078 39.65L21.8609 38.8765C22.4938 38.4547 23.0211 38.1172 23.0352 38.1312C23.0492 38.1453 22.9859 38.6515 22.8945 39.2562C22.4938 41.9633 22.3672 44.4383 22.5711 45.6758C22.7961 47.0609 23.2742 48.0945 24.0195 48.8469C24.8703 49.7047 25.8477 50.0492 27.1836 49.9719C28.0977 49.9226 28.5758 49.7961 29.4336 49.3672C30.2492 48.9664 30.9875 48.3758 31.5641 47.6726C31.782 47.4055 31.9789 47.1875 32 47.1875C32.0211 47.1875 32.218 47.4055 32.4359 47.6726C33.0125 48.3758 33.7508 48.9664 34.5664 49.3672C35.4242 49.7961 35.9023 49.9226 36.8164 49.9719C38.1523 50.0492 39.1367 49.6976 39.9805 48.8469C40.9438 47.8765 41.4219 46.5336 41.5344 44.4875C41.5906 43.5453 41.4219 41.4992 41.1406 39.5234C41.0352 38.7711 40.9508 38.1453 40.9648 38.1312C40.9789 38.1172 41.5063 38.4547 42.1391 38.8765L43.2922 39.65L43.5594 41.5344C43.707 42.575 43.8688 43.4961 43.925 43.5805C43.9883 43.6859 44.2977 43.8195 44.9867 44.0515C45.5211 44.2273 46.0273 44.375 46.1188 44.375C46.3438 44.375 46.625 44.0726 46.625 43.8336C46.625 43.475 46.4633 43.3484 45.6406 43.0742C45.2188 42.9336 44.8672 42.7929 44.8672 42.7648C44.8672 42.5609 44.3609 39.1789 44.3117 39.0664C44.2766 38.989 43.4469 38.3844 42.4625 37.7304L40.6695 36.5351L40.5148 35.6211C40.4234 35.1219 40.2336 34.025 40.0789 33.1953C39.9313 32.3656 39.8047 31.6554 39.8047 31.6133C39.8047 31.557 40.2195 31.5992 41.0703 31.7398L42.3289 31.9508L43.4328 33.8773C44.1359 35.1148 44.5859 35.832 44.6844 35.8742C44.9094 35.9656 47.0891 36.5 47.2578 36.5C47.4758 36.5 47.75 36.1906 47.75 35.9515C47.75 35.5719 47.5742 35.4594 46.6602 35.2273C46.1961 35.1078 45.6969 34.9883 45.5563 34.9461C45.3031 34.8828 45.2539 34.8125 44.1922 32.9492C43.5875 31.8875 43.0602 30.9945 43.0109 30.9664C42.9688 30.9312 42.1742 30.7836 41.2531 30.6289L39.5656 30.3406L39.2984 29.3984C39.1508 28.8781 38.8695 27.9359 38.6797 27.3101C38.4828 26.6844 38.3281 26.1219 38.3281 26.0656C38.3281 26.0023 39.1648 25.2359 40.1914 24.357C41.2602 23.4359 42.0758 22.6906 42.0969 22.5992C42.118 22.5148 42.0195 21.7344 41.8719 20.8555L41.6117 19.2664L42.7086 18.1555C43.6789 17.1851 43.8125 17.0234 43.8125 16.8195C43.8125 16.5172 43.5453 16.25 43.243 16.25C43.0391 16.25 42.8633 16.3976 41.7594 17.4945C41.0703 18.1836 40.4867 18.8164 40.4656 18.9008C40.4445 18.9851 40.543 19.7656 40.6906 20.6305L40.9508 22.2125L40.7117 22.4234C40.5781 22.5359 39.9383 23.0914 39.2773 23.6539C38.1031 24.6594 38.082 24.6804 38.0328 24.4906C38.0047 24.3851 37.8992 23.8719 37.8008 23.3515C37.5898 22.2617 37.2242 21.0945 36.9148 20.5461L36.6969 20.1664L36.8797 19.7656C37.2031 19.0484 37.0906 18.4578 36.5352 17.9023C35.9094 17.2765 35.0938 17.1992 34.4117 17.7055C34.2078 17.8531 34.1656 17.8601 33.9688 17.7828L33.7438 17.6914L34.1164 16.9531C34.4398 16.2992 34.5734 16.1305 35.2133 15.4836C35.8039 14.893 35.9375 14.7172 35.9375 14.5484C35.9375 14.2742 35.6563 14 35.382 14C35.157 14 34.5734 14.4359 34.1023 14.9633C33.5961 15.5258 32.9844 16.5453 32.7805 17.164L32.7031 17.4101H32H31.2969L31.2195 17.164C31.0156 16.5453 30.4039 15.5258 29.8977 14.9633C29.757 14.8086 29.4617 14.5273 29.2367 14.3375C28.7586 13.9437 28.5055 13.9015 28.2383 14.1758ZM29.0117 18.6758C29.3633 19.0203 29.1172 19.625 28.625 19.625C28.3367 19.625 28.0625 19.3508 28.0625 19.0625C28.0625 18.7742 28.3367 18.5 28.625 18.5C28.7586 18.5 28.9063 18.5633 29.0117 18.6758ZM33.2164 18.7109C33.6734 18.8515 33.6875 18.8656 33.6875 19.0906C33.6875 19.6672 34.1445 20.3633 34.6719 20.5953C34.8055 20.6515 35.1078 20.7219 35.3398 20.743L35.7617 20.7851L36.0219 21.3054C36.3031 21.875 36.6477 23.0914 36.8164 24.125C36.8727 24.4906 36.943 24.8984 36.9641 25.0179L36.9992 25.25H32H27.0008L27.0359 25.0179C27.057 24.8984 27.1273 24.4906 27.1836 24.125C27.3594 23.0703 27.6898 21.9031 27.9781 21.3195L28.2383 20.7851L28.6602 20.743C28.8922 20.7219 29.1945 20.6515 29.3281 20.5953C29.8555 20.3633 30.3125 19.6672 30.3125 19.0976C30.3125 18.8797 30.3406 18.8515 30.65 18.7531C31.5078 18.4648 32.3797 18.4508 33.2164 18.7109ZM35.7617 18.6758C35.8742 18.7812 35.9375 18.9289 35.9375 19.0625C35.9375 19.1961 35.8742 19.3437 35.7617 19.4492C35.6563 19.5617 35.5086 19.625 35.375 19.625C35.2414 19.625 35.0938 19.5617 34.9883 19.4492C34.8758 19.3437 34.8125 19.1961 34.8125 19.0625C34.8125 18.9289 34.8758 18.7812 34.9883 18.6758C35.0938 18.5633 35.2414 18.5 35.375 18.5C35.5086 18.5 35.6563 18.5633 35.7617 18.6758ZM30.2422 26.4242C30.2422 26.4594 30.1789 26.6422 30.1086 26.839C29.9117 27.3523 29.75 28.2734 29.75 28.8851C29.75 29.3422 29.7711 29.4265 29.9258 29.5742C30.1438 29.7992 30.4742 29.8062 30.6922 29.5883C30.8328 29.4476 30.8609 29.3281 30.8961 28.6953C30.9523 27.8515 31.1211 27.1695 31.3953 26.6984L31.5852 26.375H32H32.4148L32.6047 26.6984C32.8789 27.1695 33.0477 27.8515 33.1039 28.6953C33.1391 29.3281 33.1672 29.4476 33.3078 29.5883C33.5258 29.8062 33.8563 29.7992 34.0742 29.5742C34.2289 29.4265 34.25 29.3422 34.25 28.9203C34.25 28.3156 34.0813 27.3383 33.8984 26.8461C33.8211 26.6492 33.7578 26.4594 33.7578 26.4242C33.7578 26.3961 34.5383 26.382 35.4945 26.389L37.2242 26.4101L37.6039 27.5351C37.8078 28.1539 37.9977 28.7164 38.0188 28.7797C38.0469 28.8781 37.5195 29.1734 35.0305 30.4179L32 31.9297L28.9766 30.4179C27.3172 29.5883 25.9531 28.8992 25.9531 28.8851C25.9531 28.864 26.6984 26.6211 26.7617 26.4594C26.7828 26.3961 27.2047 26.375 28.5195 26.375C29.4688 26.375 30.2422 26.3961 30.2422 26.4242ZM31.4375 39.425V45.9289L31.1563 46.3437C29.6797 48.5164 27.2258 49.4445 25.4398 48.5023C23.9563 47.7219 23.3375 45.5351 23.6609 42.2656C23.8086 40.8312 24.1039 38.75 24.5117 36.3383C24.8352 34.4258 25.5805 30.3687 25.6438 30.1578C25.6719 30.0523 26.143 30.2633 28.5617 31.4726L31.4375 32.914V39.425ZM38.8133 32.5273C39.6148 36.8937 40.1211 40.1351 40.3391 42.2726C40.5711 44.5929 40.318 46.414 39.6008 47.518C39.1508 48.2211 38.5602 48.6289 37.7797 48.7976C36.0641 49.1633 34.0883 48.1789 32.8438 46.3437L32.5625 45.9289V39.425V32.914L35.4313 31.4797C37.3016 30.5445 38.307 30.0734 38.3352 30.1297C38.3633 30.1719 38.5742 31.2476 38.8133 32.5273Z" fill="black"/>
<path d="M30.0102 21.3899C29.8484 21.4884 28.625 23.9282 28.625 24.1602C28.625 24.5399 29.1172 24.8071 29.4758 24.6173C29.6445 24.5259 30.875 22.086 30.875 21.8399C30.875 21.4532 30.3617 21.186 30.0102 21.3899Z" fill="black"/>
<path d="M33.3008 21.4884C33.2023 21.5798 33.125 21.7415 33.125 21.8399C33.125 22.086 34.3555 24.5259 34.5242 24.6173C34.8828 24.8071 35.375 24.5399 35.375 24.1602C35.375 23.9141 34.1445 21.4743 33.9758 21.3829C33.7437 21.2634 33.4766 21.3056 33.3008 21.4884Z" fill="black"/>
<path d="M28.8429 33.8069C28.646 33.9687 28.6039 34.1726 28.3859 35.9374C28.0343 38.7851 27.971 39.7273 27.964 42.1601C27.957 44.9726 28.0062 45.6616 28.2453 45.8937C28.4632 46.1187 28.7867 46.1116 29.0187 45.8796C29.1804 45.7249 29.1945 45.6616 29.1593 45.3733C29.0609 44.5437 29.0328 41.3866 29.1101 40.1562C29.2085 38.6093 29.4195 36.5421 29.6093 35.2483C29.7851 34.0741 29.7851 34.0671 29.5742 33.8632C29.3703 33.6523 29.0609 33.6312 28.8429 33.8069Z" fill="black"/>
<path d="M25.9953 34.9741C25.8687 35.1007 25.7913 35.3397 25.6507 36.1202C25.2007 38.4616 25.0742 39.9171 25.1374 41.9491C25.1867 43.6788 25.2429 44.0726 25.4609 44.2483C25.6859 44.4311 25.9953 44.4101 26.2062 44.1991C26.382 44.0233 26.389 44.0022 26.3257 43.4046C26.2976 43.0671 26.2695 42.0335 26.2765 41.1054C26.2835 39.2843 26.4101 38.0046 26.7617 36.289C26.9796 35.2132 26.9796 35.1991 26.7617 34.9882C26.5437 34.7632 26.2132 34.7561 25.9953 34.9741Z" fill="black"/>
<path d="M34.4258 33.8632C34.2149 34.0671 34.2149 34.0741 34.3907 35.2483C34.5805 36.5843 34.7915 38.6374 34.8899 40.1913C34.9672 41.478 34.9391 44.5085 34.8407 45.3382C34.7985 45.6616 34.8126 45.7179 34.9743 45.8796C35.2133 46.1116 35.5297 46.1187 35.7547 45.8937C35.9868 45.6616 36.043 44.9796 36.043 42.2655C36.036 39.9663 35.9797 39.0241 35.6844 36.5351C35.4383 34.4116 35.354 33.9687 35.1641 33.814C34.9391 33.6312 34.6297 33.6523 34.4258 33.8632Z" fill="black"/>
<path d="M37.2383 34.9882C37.0203 35.1991 37.0203 35.2132 37.2383 36.289C37.5899 38.0046 37.7164 39.2843 37.7235 41.1054C37.7305 42.0335 37.7024 43.0671 37.6742 43.4046C37.611 44.0022 37.618 44.0233 37.7938 44.1991C38.0047 44.4101 38.3141 44.4311 38.5391 44.2483C38.7571 44.0726 38.8133 43.6858 38.8696 41.9702C38.9258 39.9663 38.7922 38.4405 38.3492 36.1202C38.2086 35.3397 38.1313 35.1007 38.0047 34.9741C37.7867 34.7561 37.4563 34.7632 37.2383 34.9882Z" fill="black"/>
</svg>
