<svg width="64" height="64" viewBox="0 0 64 64" fill="none" xmlns="http://www.w3.org/2000/svg">
<path d="M40.25 21.6875C40.25 22.0954 40.129 22.4942 39.9024 22.8334C39.6758 23.1725 39.3537 23.4369 38.9768 23.593C38.5999 23.7491 38.1852 23.79 37.7851 23.7104C37.385 23.6308 37.0175 23.4344 36.7291 23.1459C36.4407 22.8575 36.2442 22.49 36.1646 22.0899C36.0851 21.6898 36.1259 21.2751 36.282 20.8982C36.4381 20.5213 36.7025 20.1992 37.0416 19.9726C37.3808 19.746 37.7796 19.625 38.1875 19.625C38.7345 19.625 39.2591 19.8423 39.6459 20.2291C40.0327 20.6159 40.25 21.1405 40.25 21.6875ZM51.25 23.75C51.2501 23.9764 51.1944 24.1994 51.0876 24.3991C50.9809 24.5988 50.8265 24.769 50.6381 24.8947L47.125 27.2356V30.625C47.12 35.3642 45.2351 39.9079 41.884 43.259C38.5329 46.6101 33.9892 48.495 29.25 48.5H14.125C13.6069 48.5 13.0993 48.3536 12.6608 48.0778C12.2222 47.8019 11.8705 47.4078 11.6462 46.9408C11.4218 46.4738 11.334 45.9529 11.3927 45.4381C11.4515 44.9234 11.6545 44.4357 11.9783 44.0312L11.9955 44.0106L26.5 26.6083V23.2155C26.5 17.4714 31.1045 12.7775 36.7627 12.75H36.8125C39.0032 12.7493 41.1372 13.4463 42.9051 14.7399C44.6731 16.0335 45.9832 17.8565 46.6455 19.9447L50.6381 22.6053C50.8265 22.731 50.9809 22.9012 51.0876 23.1009C51.1944 23.3006 51.2501 23.5236 51.25 23.75ZM47.3966 23.75L44.7016 21.9522C44.4205 21.7652 44.218 21.4814 44.1327 21.1547C43.7104 19.5349 42.7626 18.101 41.4379 17.0777C40.1132 16.0544 38.4864 15.4995 36.8125 15.5H36.7747C32.6256 15.5206 29.25 18.9805 29.25 23.2155V27.105C29.2505 27.4271 29.138 27.7391 28.932 27.9867L14.125 45.75H18.7484L30.9413 31.12C31.0555 30.9773 31.1971 30.8588 31.3577 30.7714C31.5183 30.684 31.6948 30.6296 31.8767 30.6112C32.0586 30.5929 32.2423 30.611 32.4171 30.6645C32.592 30.718 32.7544 30.8059 32.8948 30.9229C33.0353 31.04 33.151 31.1838 33.2352 31.3461C33.3194 31.5084 33.3704 31.6859 33.3852 31.8681C33.4 32.0504 33.3782 32.2337 33.3213 32.4075C33.2644 32.5812 33.1734 32.7419 33.0536 32.88L22.332 45.75H29.25C33.26 45.7454 37.1045 44.1505 39.94 41.315C42.7755 38.4795 44.3705 34.635 44.375 30.625V26.5C44.3749 26.2736 44.4306 26.0506 44.5374 25.8509C44.6441 25.6512 44.7985 25.481 44.9869 25.3553L47.3966 23.75Z" fill="black"/>
</svg>
