<svg width="64" height="64" viewBox="0 0 64 64" fill="none" xmlns="http://www.w3.org/2000/svg">
<path d="M39.5 18.5C38.6939 18.5023 37.9031 18.7211 37.2105 19.1335C36.5178 19.5459 35.9486 20.1368 35.5625 20.8445C35.0525 21.143 34.028 21.7925 32.891 23.0465C31.49 23.0705 28.877 23.1755 25.9055 24.125C22.73 25.139 19.3265 27.1955 17.4215 30.9695C17.405 31.01 17.3465 31.022 17.3285 31.0625C17.252 31.145 16.526 31.895 15.734 33.0785C14.909 34.3205 14 35.9495 14 37.859C14 39.236 14.48 40.619 15.5 41.609C15.8345 41.9375 16.268 42.1655 16.7195 42.359C16.5425 42.5945 16.355 42.8225 16.2035 43.0625C15.8585 43.6025 15.5 43.982 15.5 44.984C15.5 45.611 15.9575 46.2095 16.2965 46.4375C16.6355 46.6655 16.877 46.7525 17.141 46.8125C17.6615 46.9295 18.206 46.9415 18.8285 46.9535C20.0765 46.97 21.6995 46.901 23.516 46.8125C27.155 46.637 31.601 46.478 34.766 47L35.234 44C33.734 43.754 32.069 43.655 30.407 43.625C31.3265 42.647 32 41.4215 32 39.9215C32 37.526 30.4535 35.7095 28.6715 34.766C26.891 33.821 24.8225 33.5 23 33.5V36.5C24.4115 36.5 26.105 36.8225 27.266 37.4375C28.4255 38.0525 29 38.7095 29 39.9215C29 40.901 28.2035 41.8265 26.891 42.5945C25.5785 43.361 23.8265 43.7645 23.282 43.7645V43.8125C21.6575 43.8875 20.276 43.9535 19.25 43.9535C19.4075 43.7435 19.55 43.5545 19.7195 43.343C20.4575 42.4355 21.2195 41.6555 21.2195 41.6555L19.0145 39.593L18.9695 39.6875C18.2135 39.9095 17.885 39.7625 17.5625 39.4535C17.24 39.1445 17 38.504 17 37.859C17 37.0625 17.5925 35.78 18.266 34.766C18.9395 33.752 19.5785 33.0305 19.5785 33.0305L19.766 32.843L19.859 32.609C21.254 29.516 24.02 27.887 26.8445 26.984C29.666 26.0825 32.4575 26 33.5 26H34.25L34.7195 25.391C34.9235 25.109 35.147 24.911 35.375 24.6875C36.0545 26.3225 37.637 27.5 39.5 27.5C41.885 27.5 43.8245 25.5905 43.9535 23.234C44.639 23.405 45.3185 23.633 45.875 23.9375C46.355 24.2015 46.742 24.494 46.9535 24.6875C46.9415 24.7475 46.9295 24.7175 46.9055 24.782C46.8065 25.0565 46.601 25.379 46.343 25.766C45.8225 26.5325 44.9615 27.4175 43.4375 28.016L42.5 28.391V29.4215C42.5 31.526 42.3125 36.6995 39.4055 38.75L41.141 41.1875C45.353 38.2115 45.4055 32.843 45.4055 30.3125C46.97 29.5025 48.1355 28.472 48.8285 27.4535C49.238 26.8445 49.5365 26.276 49.718 25.766C49.901 25.256 50 24.851 50 24.359C50 23.1995 49.4255 22.9055 48.968 22.484C48.4555 22.0259 47.8888 21.6325 47.2805 21.3125C46.0625 20.651 44.528 20.123 42.875 20.0465C42.4548 19.5635 41.9364 19.1757 41.3544 18.909C40.7724 18.6423 40.1402 18.5029 39.5 18.5ZM39.5 21.5C40.3445 21.5 41 22.157 41 23C41 23.843 40.343 24.5 39.5 24.5C38.657 24.5 38 23.843 38 23C38 22.157 38.657 21.5 39.5 21.5ZM36.5 32.5625C35.6467 33.7605 35.0848 35.1411 34.859 36.5945C34.679 37.76 34.724 38.8385 34.7195 38.8895V38.9375C34.7195 39.3305 34.7885 39.383 34.8125 39.4535L34.859 39.593C34.895 39.6875 34.9535 39.776 35 39.875C35.0885 40.0685 35.1875 40.2965 35.3285 40.5785C35.615 41.141 36.0185 41.879 36.4535 42.641C37.3265 44.1575 38.1995 45.728 39.359 46.718C39.536 46.878 39.7395 46.988 39.9695 47.048C40.6595 47.2055 40.9655 47.024 41.282 46.9535C41.5985 46.883 41.9075 46.8245 42.266 46.766C42.974 46.655 43.847 46.607 45.0785 46.9535L45.9215 44.0465C44.5798 43.67 43.1722 43.5902 41.7965 43.8125C41.4335 43.8725 41.1935 43.9475 40.9535 44C40.5365 43.508 39.74 42.377 39.0305 41.141C38.5654 40.3274 38.1276 39.4984 37.718 38.6555C37.7135 38.645 37.724 38.615 37.718 38.6105C37.724 38.141 37.7135 37.7135 37.8125 37.0625C37.9415 36.2375 38.2475 35.276 38.9375 34.2965L36.5 32.5625Z" fill="black"/>
</svg>
