<svg width="64" height="64" viewBox="0 0 64 64" fill="none" xmlns="http://www.w3.org/2000/svg">
<path d="M18.5563 31.4375C18.5563 31.1225 18.8038 30.875 19.1188 30.875C19.4338 30.875 19.6813 31.1225 19.6813 31.4375V32.5625C19.6813 32.8775 19.4338 33.125 19.1188 33.125C18.8038 33.125 18.5563 32.8775 18.5563 32.5625V31.4375Z" fill="black"/>
<path d="M20.7162 37.0625C21.1662 37.0625 21.5712 36.8904 21.875 36.6091V38.1425C21.875 38.4012 21.7737 38.6375 21.5938 38.8175L19.715 40.6962C19.3887 41.0225 19.3887 41.5625 19.715 41.8888C19.8837 42.0575 20.0975 42.1362 20.3113 42.1362C20.525 42.1362 20.7387 42.0575 20.9075 41.9L22.7863 40.0212C23.2812 39.515 23.5625 38.8512 23.5625 38.1425V37.0287C23.7425 37.0512 23.93 37.0625 24.125 37.0625C24.3575 37.0625 24.5862 37.0471 24.8112 37.0164V41.2812C24.8112 41.505 24.9001 41.7196 25.0584 41.8779C25.2166 42.0361 25.4312 42.125 25.655 42.125C25.8788 42.125 26.0934 42.0361 26.2516 41.8779C26.4099 41.7196 26.4987 41.505 26.4987 41.2812V36.5H28.8669C28.607 37.0391 28.565 37.6577 28.7496 38.227C28.9342 38.7962 29.3312 39.2725 29.858 39.5565C30.3847 39.8405 31.0007 39.9105 31.5778 39.7519C32.1549 39.5933 32.6486 39.2184 32.9563 38.705L34.2714 36.5H39.3125V41.2812C39.3125 41.7425 39.695 42.125 40.1562 42.125C40.6175 42.125 41 41.7425 41 41.2812V36.5H43.565C44.5438 36.5 45.2413 35.555 44.9487 34.6213C44.7771 34.0924 44.5349 33.5891 44.2288 33.125C45.8161 32.4881 47.1512 31.3489 48.0301 29.8816C48.8041 28.5867 47.8737 26.9375 46.3663 26.9375H41V25.052C41.0119 24.9194 40.9926 24.7859 40.9438 24.6621C40.895 24.5383 40.8179 24.4275 40.7188 24.3387C40.6363 24.2644 40.5399 24.2071 40.4351 24.1702C40.3303 24.1333 40.2193 24.1175 40.1084 24.1238C39.9975 24.1301 39.889 24.1582 39.7891 24.2067C39.6891 24.2552 39.5998 24.323 39.5263 24.4062L37.2729 26.9375H23.7087V26.9555C23.0551 27.0117 22.5027 27.203 21.974 27.4899L21.875 27.3909V26.2063C21.875 25.0588 22.8088 24.125 23.9563 24.125H35.9375C36.2525 24.125 36.5 23.8775 36.5 23.5625C36.5 23.2475 36.2525 23 35.9375 23H23.9563C22.19 23 20.75 24.44 20.75 26.2063V26.9375H20.705C17.9251 26.9375 15.6875 29.2089 15.6875 32C15.6875 34.7911 17.9251 37.0625 20.705 37.0625H20.7162ZM21.3125 28.6813V35.3188C21.314 35.3985 21.2997 35.4778 21.2706 35.5521C21.2414 35.6264 21.1979 35.6942 21.1426 35.7516C21.0872 35.8091 21.021 35.8551 20.9479 35.887C20.8747 35.9189 20.796 35.936 20.7162 35.9375H20.705C18.5574 35.9375 16.8125 34.1814 16.8125 32C16.8125 29.8186 18.5574 28.0625 20.705 28.0625H20.7162C20.796 28.064 20.8747 28.0811 20.9479 28.113C21.021 28.1449 21.0872 28.1909 21.1426 28.2484C21.1979 28.3058 21.2414 28.3736 21.2706 28.4479C21.2997 28.5222 21.314 28.6015 21.3125 28.6813ZM32.2655 32.5625H29.156C29.177 32.378 29.1875 32.1905 29.1875 32C29.1876 31.245 29.0188 30.4996 28.6935 29.8183C28.3683 29.137 27.8947 28.5371 27.3076 28.0625H36.2716L32.2655 32.5625ZM36.6193 32.5625L39.3035 28.0625H39.3125V32.5625H36.6193ZM41 28.0625H46.3663C46.9963 28.0625 47.3923 28.7532 47.0649 29.3034C46.4696 30.297 45.6271 31.1195 44.6194 31.6906C43.6117 32.2618 42.4733 32.5622 41.315 32.5625H41V28.0625Z" fill="black"/>
</svg>
