<svg width="64" height="64" viewBox="0 0 64 64" fill="none" xmlns="http://www.w3.org/2000/svg">
<path d="M17.0625 31.375C17.0625 31.025 17.3375 30.75 17.6875 30.75C18.0375 30.75 18.3125 31.025 18.3125 31.375V32.625C18.3125 32.975 18.0375 33.25 17.6875 33.25C17.3375 33.25 17.0625 32.975 17.0625 32.625V31.375Z" fill="black"/>
<path d="M19.4625 37.625C19.9625 37.625 20.4125 37.4337 20.75 37.1212V38.825C20.75 39.1125 20.6375 39.375 20.4375 39.575L18.35 41.6625C17.9875 42.025 17.9875 42.625 18.35 42.9875C18.5375 43.175 18.775 43.2625 19.0125 43.2625C19.25 43.2625 19.4875 43.175 19.675 43L21.7625 40.9125C22.3125 40.35 22.625 39.6125 22.625 38.825V37.5875C22.825 37.6125 23.0333 37.625 23.25 37.625C23.5083 37.625 23.7625 37.6079 24.0125 37.5737V42.3125C24.0125 42.5611 24.1113 42.7996 24.2871 42.9754C24.4629 43.1512 24.7014 43.25 24.95 43.25C25.1986 43.25 25.4371 43.1512 25.6129 42.9754C25.7887 42.7996 25.8875 42.5611 25.8875 42.3125V37H28.5188C28.23 37.599 28.1833 38.2863 28.3885 38.9188C28.5936 39.5514 29.0347 40.0805 29.62 40.3961C30.2053 40.7117 30.8897 40.7895 31.5309 40.6133C32.1721 40.437 32.7207 40.0204 33.0625 39.45L34.5237 37H40.125V42.3125C40.125 42.825 40.55 43.25 41.0625 43.25C41.575 43.25 42 42.825 42 42.3125V37H44.85C45.9375 37 46.7125 35.95 46.3875 34.9125C46.1967 34.3249 45.9277 33.7657 45.5875 33.25C47.3512 32.5423 48.8347 31.2766 49.8112 29.6462C50.6712 28.2075 49.6375 26.375 47.9625 26.375H42V24.28C42.0132 24.1327 41.9918 23.9843 41.9376 23.8468C41.8833 23.7092 41.7977 23.5862 41.6875 23.4875C41.5959 23.4048 41.4887 23.3412 41.3723 23.3002C41.2559 23.2592 41.1326 23.2417 41.0094 23.2486C40.8861 23.2556 40.7655 23.2869 40.6545 23.3408C40.5435 23.3947 40.4442 23.47 40.3625 23.5625L37.8587 26.375H22.7875V26.395C22.0612 26.4575 21.4475 26.67 20.86 26.9887L20.75 26.8787V25.5625C20.75 24.2875 21.7875 23.25 23.0625 23.25H36.375C36.725 23.25 37 22.975 37 22.625C37 22.275 36.725 22 36.375 22H23.0625C21.1 22 19.5 23.6 19.5 25.5625V26.375H19.45C16.3613 26.375 13.875 28.8987 13.875 32C13.875 35.1012 16.3613 37.625 19.45 37.625H19.4625ZM20.125 28.3125V35.6875C20.1267 35.7761 20.1108 35.8643 20.0784 35.9468C20.046 36.0293 19.9977 36.1046 19.9362 36.1685C19.8746 36.2323 19.8012 36.2834 19.7199 36.3189C19.6386 36.3543 19.5511 36.3734 19.4625 36.375H19.45C17.0638 36.375 15.125 34.4237 15.125 32C15.125 29.5762 17.0638 27.625 19.45 27.625H19.4625C19.5511 27.6266 19.6386 27.6457 19.7199 27.6811C19.8012 27.7166 19.8746 27.7677 19.9362 27.8315C19.9977 27.8954 20.046 27.9707 20.0784 28.0532C20.1108 28.1357 20.1267 28.2239 20.125 28.3125ZM32.295 32.625H28.84C28.8633 32.42 28.875 32.2117 28.875 32C28.8751 31.1612 28.6876 30.3329 28.3261 29.5759C27.9647 28.8189 27.4386 28.1524 26.7863 27.625H36.7463L32.295 32.625ZM37.1325 32.625L40.115 27.625H40.125V32.625H37.1325ZM42 27.625H47.9625C48.6625 27.625 49.1025 28.3925 48.7388 29.0037C48.0773 30.1078 47.1412 31.0216 46.0216 31.6562C44.9019 32.2909 43.637 32.6246 42.35 32.625H42V27.625Z" fill="black"/>
</svg>
