<svg width="64" height="64" viewBox="0 0 64 64" fill="none" xmlns="http://www.w3.org/2000/svg">
<path d="M42.3984 15.8008C39.8976 15.8369 37.3195 17.7963 36.5375 23.6813C36.3914 24.7641 35.8156 25.8126 34.9734 26.818C35.5836 26.5602 36.1851 26.4055 36.7781 26.4055C37.2078 26.4055 37.6203 26.4829 38.0242 26.6547C39.6656 27.3766 40.6796 28.3477 41.1523 29.4477C41.625 30.5477 41.5218 31.6907 41.2125 32.679C40.9031 33.6586 40.3875 34.518 39.9148 35.1626C39.4507 35.8157 39.0898 36.2024 38.8664 36.4001C35.9789 39.0297 30.7109 39.6141 26.1304 39.7258C22.4093 39.8719 18.714 39.468 15.0342 39.0211C15.0342 39.0211 12.3589 39.8805 11.4257 40.2672C15.8935 41.6336 19.6851 41.2126 23.4234 40.6368C27.8921 42.1235 37.6718 43.3524 44.1429 37.4399C47.3742 34.7844 47.2539 30.0407 45.6468 24.3602L47.8726 19.8055C47.6406 17.902 45.0625 15.7613 42.3984 15.8008ZM44.5382 18.6368C44.9164 18.6368 45.2257 18.9461 45.2257 19.3243C45.2257 19.7024 44.9164 20.0118 44.5382 20.0118C44.1601 20.0118 43.8507 19.7024 43.8507 19.3243C43.8507 18.9461 44.1601 18.6368 44.5382 18.6368ZM49.4882 19.8915L48.0445 22.461C48.5773 22.4524 49.1015 22.4266 49.4968 22.3665C50.6742 22.1086 51.3875 21.636 52.5734 21.6532C51.9976 20.6735 50.932 20.1235 49.4882 19.8915ZM36.7179 27.9352C36.3312 27.9524 35.8757 28.0813 35.3 28.3649C34.3375 28.829 33.1257 29.6883 31.6132 30.7969C28.9921 32.7219 25.4601 35.3774 20.4757 38.0415C21.971 38.136 23.9476 38.2219 26.0961 38.179C30.5476 38.0758 35.5921 37.2852 37.8265 35.2485H37.8351C37.8265 35.2571 38.2562 34.8188 38.6601 34.2602C39.064 33.7016 39.5023 32.9626 39.7343 32.2149C39.975 31.4586 40.0179 30.7282 39.7343 30.0579C39.4421 29.379 38.8062 28.6829 37.4054 28.0813C37.2679 28.0126 37.1218 27.9782 36.9757 27.9524C36.8898 27.9438 36.8039 27.9352 36.7179 27.9352ZM36.546 42.8024C36.0218 42.9313 35.5062 43.0344 34.9992 43.1118V46.386C34.5007 46.3774 33.9851 46.386 33.4523 46.429V43.2665C32.9281 43.3008 32.4125 43.3094 31.9054 43.3008V46.6094C31.5359 46.6696 31.1664 46.7383 30.7882 46.8243V48.1993H39.7257C39.0382 47.3313 37.921 46.7899 36.546 46.5493V42.8024Z" fill="black"/>
</svg>
