<svg width="64" height="64" viewBox="0 0 64 64" fill="none" xmlns="http://www.w3.org/2000/svg">
<path d="M29.3696 13.0469C27.9962 13.2175 27.0534 13.5507 26.6633 13.9977C26.4602 14.2253 26.4195 14.3391 26.4195 14.7048C26.4195 14.9405 26.4927 15.3387 26.5739 15.5906C26.9559 16.6878 27.1997 19.4347 27.1184 21.6615C27.0697 23.0025 26.964 24.3109 26.8665 24.7416C26.8177 24.9286 26.8177 24.9286 26.6471 24.7823C26.5577 24.6929 25.94 24.059 25.2736 23.36L24.0708 22.1004L24.1846 21.7753C24.7047 20.3287 23.3313 16.5902 21.6408 14.8104C20.8932 14.0302 20.2592 13.7458 19.7472 13.9652C18.837 14.3553 18.707 15.5825 19.3572 17.598C19.6091 18.3619 20.3974 19.9873 20.8444 20.6375C21.0476 20.9463 21.2101 21.2145 21.1939 21.2226C21.1776 21.2389 20.8769 21.2958 20.5274 21.3445C19.2759 21.5152 17.9512 21.9947 17.4554 22.4661C16.8134 23.0593 16.854 23.8233 17.553 24.1809C18.7314 24.7823 21.7221 24.3434 23.0874 23.3682L23.315 23.2056L24.851 24.7985C26.2082 26.2126 26.3789 26.4239 26.4033 26.6921C26.4114 26.8547 26.4927 27.2204 26.5821 27.5129C27.3135 29.9185 27.3054 35.7212 26.5739 37.9318C26.3708 38.5332 26.3789 38.7526 26.6146 39.5653C27.3135 41.979 27.2891 47.7573 26.5739 49.8378C26.3708 50.4311 26.3789 50.6099 26.6064 50.8212L26.7934 51H31.954H37.1228L37.2935 50.8131C37.5129 50.5774 37.5129 50.423 37.3178 49.8378C36.5864 47.7248 36.5783 41.9953 37.2935 39.4922L37.5129 38.7445L39.0408 37.1516L40.5768 35.5587L40.8043 35.7212C41.5358 36.2414 42.8442 36.6558 44.1689 36.7777C45.4936 36.9078 46.5014 36.6558 46.7777 36.1276C47.3141 35.0954 45.9894 34.1283 43.4944 33.722C43.0636 33.657 42.706 33.5838 42.6979 33.5757C42.6817 33.5594 42.8442 33.2994 43.0474 32.9905C43.2587 32.6817 43.6407 31.9909 43.8926 31.4545C45.2335 28.6507 45.2986 26.6596 44.0551 26.2858C43.7869 26.2045 43.6732 26.2126 43.3481 26.3345C42.2916 26.7409 40.8531 28.7808 40.081 30.9669C39.5934 32.3323 39.4634 33.4457 39.7072 34.1283L39.821 34.4534L38.6019 35.7293C37.2284 37.176 37.1797 37.2166 37.1147 37.1191C37.009 36.9403 36.8221 35.0223 36.7733 33.6245C36.6921 31.292 36.9277 28.667 37.3178 27.4967C37.5048 26.9278 37.5129 26.5865 37.3422 26.1232C37.1147 25.4893 36.9115 24.0996 36.8058 22.4498C36.6514 19.9304 36.9034 16.6959 37.3422 15.4931C37.4154 15.298 37.4723 14.9405 37.4723 14.7048C37.4723 14.3391 37.4316 14.2253 37.2284 13.9977C36.9277 13.6483 36.3589 13.3963 35.3999 13.1932C34.7822 13.055 34.2865 13.0225 32.3116 13.0062C31.0194 12.99 29.6947 13.0062 29.3696 13.0469ZM34.6928 14.3472C35.6518 14.4935 35.7249 14.5504 35.1073 14.6641C34.0752 14.8429 32.3929 14.9323 31.1576 14.8836C30.0604 14.8348 28.3944 14.6479 28.3131 14.5585C28.2562 14.5097 29.0608 14.3553 29.8329 14.274C30.7025 14.1765 33.9045 14.2253 34.6928 14.3472ZM20.755 15.745C21.6733 16.8422 22.4617 18.4107 22.8436 19.8898C23.0143 20.54 23.0549 21.0926 22.933 21.0926C22.8274 21.0926 22.3479 20.54 21.974 19.9873C21.4783 19.264 20.8606 17.98 20.5762 17.086C20.2999 16.2164 20.1617 15.3224 20.308 15.3224C20.3568 15.3224 20.5518 15.5175 20.755 15.745ZM28.8414 15.9482C29.9792 16.1514 33.9126 16.1514 35.0667 15.9482C35.5055 15.8669 35.8794 15.8182 35.8956 15.8344C35.9119 15.8507 35.8712 16.1514 35.8143 16.5171C35.3755 18.9877 35.4486 23.6039 35.9525 25.7981L36.0663 26.2939H31.9459H27.8255L27.9393 25.7981C28.4431 23.6039 28.5163 18.9796 28.0774 16.509C28.0124 16.1433 27.9637 15.8426 27.9637 15.8263C27.9637 15.7938 28.0124 15.8019 28.8414 15.9482ZM21.5027 22.718C20.9175 22.9862 18.7801 23.3275 18.8939 23.1325C19.0158 22.9456 20.6819 22.5717 21.4214 22.5717H21.8278L21.5027 22.718ZM35.8956 27.8949C35.5949 29.6503 35.5624 30.0323 35.5624 32.6736C35.5624 34.4778 35.5949 35.6074 35.6681 36.1276C35.79 36.9565 35.9688 37.8668 36.05 38.0943C36.1069 38.2325 35.8794 38.2406 31.9459 38.2406C28.3456 38.2406 27.793 38.2243 27.8255 38.1268C27.8499 38.0618 27.9311 37.7367 27.9962 37.4116C28.2725 36.0626 28.3294 35.2661 28.3294 32.633C28.3294 30.0404 28.2969 29.6341 27.9962 27.8949L27.9393 27.5942H31.9459H35.9525L35.8956 27.8949ZM43.6244 28.155C43.47 29.6178 42.1697 32.3323 41.1619 33.2831L40.8612 33.5676L40.91 32.9987C40.9912 32.0153 41.7796 30.0079 42.5354 28.8945C42.893 28.3582 43.4862 27.6755 43.5838 27.6755C43.6407 27.6755 43.6569 27.838 43.6244 28.155ZM44.0551 35.1605C44.4452 35.2499 44.8353 35.3799 44.9166 35.4449C45.0548 35.5506 45.0141 35.5587 44.5021 35.5099C43.6813 35.4368 42.7629 35.2417 42.3891 35.0629L42.064 34.9085L42.706 34.9492C43.0555 34.9735 43.665 35.0629 44.0551 35.1605ZM35.9281 39.5572C35.9281 39.6141 35.8794 39.9554 35.8143 40.3211C35.408 42.6373 35.4405 47.1234 35.8794 49.2689L35.985 49.7809H31.9459H27.9068L28.0124 49.2689C28.2318 48.2206 28.2969 47.3997 28.3456 45.3761C28.3944 43.2306 28.305 41.6214 28.0774 40.3211C28.0124 39.9554 27.9637 39.6141 27.9637 39.5572C27.9637 39.484 28.817 39.4596 31.9459 39.4596C35.0748 39.4596 35.9281 39.484 35.9281 39.5572Z" fill="black"/>
<path d="M29.2721 16.4519C29.1664 16.4844 29.0039 16.5982 28.9145 16.7201C28.7601 16.9233 28.7601 16.9558 28.8901 17.4922C29.1095 18.4268 29.1827 19.3451 29.1827 21.1737C29.1827 23.0023 29.1014 24.0425 28.8901 24.8877C28.7763 25.3428 28.7763 25.4079 28.8982 25.6354C29.142 26.1149 29.7678 26.0662 30.0197 25.5379C30.3123 24.9609 30.4098 24.0669 30.4586 21.7751C30.5399 17.7685 30.1904 16.2243 29.2721 16.4519Z" fill="black"/>
<path d="M29.2721 28.155C29.1664 28.1875 29.0039 28.3013 28.9145 28.4232C28.7601 28.6264 28.7601 28.6589 28.8901 29.1953C29.1095 30.1299 29.1827 31.0482 29.1827 32.8768C29.1827 34.7054 29.1014 35.7457 28.8901 36.5909C28.7763 37.046 28.7763 37.111 28.8982 37.3385C29.142 37.818 29.7678 37.7693 30.0197 37.241C30.3123 36.664 30.4098 35.77 30.4586 33.4782C30.5399 29.4716 30.1904 27.9275 29.2721 28.155Z" fill="black"/>
<path d="M29.2721 39.8577C29.1664 39.8902 29.0039 40.0039 28.9145 40.1259C28.7601 40.329 28.7601 40.3615 28.8901 40.8979C29.1095 41.8325 29.1827 42.7509 29.1827 44.5795C29.1827 46.408 29.1014 47.4483 28.8901 48.2935C28.7763 48.7486 28.7763 48.8136 28.8982 49.0412C29.142 49.5207 29.7678 49.4719 30.0197 48.9437C30.3123 48.3666 30.4098 47.4727 30.4586 45.1809C30.5399 41.1742 30.1904 39.6301 29.2721 39.8577Z" fill="black"/>
</svg>
