<svg width="64" height="64" viewBox="0 0 64 64" fill="none" xmlns="http://www.w3.org/2000/svg">
<path d="M23.7969 12.5565C21.8938 13.4096 20.2532 14.1877 20.1688 14.3002C20.0188 14.469 20.0001 14.7971 20.0001 18.0221V21.5471H19.3251C18.5469 21.5565 18.0969 21.744 17.5907 22.269C16.8594 23.0283 16.8032 24.2283 17.4688 25.1658C17.9563 25.8408 19.0344 26.1502 19.9251 25.8596C20.6094 25.644 21.0126 25.3065 21.2751 24.744L21.5001 24.2658V19.7565V15.2377L24.0594 14.1033C25.4563 13.4752 26.6376 12.969 26.6844 12.969C26.7219 12.969 26.7501 14.2346 26.7501 15.7721V18.5846L26.2438 18.5283C24.2001 18.3127 23.0094 20.6096 24.3219 22.2596C25.0626 23.2065 26.6938 23.2252 27.6126 22.3065C28.2594 21.6596 28.2501 21.8002 28.2501 16.3627V11.4596L28.0157 11.2346C27.8751 11.094 27.6876 11.0002 27.5282 11.0096C27.3876 11.0096 25.7094 11.7127 23.7969 12.5565ZM26.2251 20.094C26.3563 20.1408 26.5251 20.2815 26.6094 20.4127C26.7407 20.6096 26.7501 20.7033 26.6563 20.9752C26.4688 21.5658 25.7469 21.6315 25.3907 21.0877C25.1282 20.694 25.4469 20.0565 25.9251 20.0096C25.9626 20.0002 26.0938 20.0377 26.2251 20.094ZM19.4751 23.094C19.6063 23.1408 19.7751 23.2815 19.8594 23.4127C19.9907 23.6096 20.0001 23.7033 19.9063 23.9752C19.7188 24.5658 18.9969 24.6315 18.6407 24.0877C18.3782 23.694 18.6969 23.0565 19.1751 23.0096C19.2126 23.0002 19.3438 23.0377 19.4751 23.094Z" fill="black"/>
<path d="M33.4812 15.6782C32.3562 16.1844 31.3718 16.6532 31.2968 16.7188C31.0906 16.8969 31.1187 17.525 31.3437 17.75C31.6437 18.05 32.0468 17.975 33.4906 17.3282C34.2406 16.9907 34.8781 16.7188 34.925 16.7188C34.9625 16.7188 35.0093 18.6032 35.0187 20.9094C35.0468 24.8188 35.0562 25.1375 35.225 25.4657C35.75 26.5344 36.8375 26.9844 37.9718 26.6C38.9843 26.2625 39.4437 25.6157 39.4531 24.5469C39.4531 23.6844 39.0968 23 38.4218 22.5782C38.0093 22.325 37.8968 22.2969 37.2312 22.3063L36.5 22.3157V18.7625V15.2094L36.2656 14.9844C36.1343 14.8438 35.9375 14.75 35.7781 14.7594C35.6375 14.7594 34.5968 15.1719 33.4812 15.6782ZM37.475 23.8438C37.6062 23.8907 37.775 24.0313 37.8593 24.1625C37.9906 24.3594 38 24.4532 37.9062 24.725C37.7187 25.3157 36.9968 25.3813 36.6406 24.8375C36.3781 24.4438 36.6968 23.8063 37.175 23.7594C37.2125 23.75 37.3437 23.7875 37.475 23.8438Z" fill="black"/>
<path d="M11.4219 27.6126C11.1312 27.772 11 27.9782 11 28.2876C11 28.5314 11.3844 28.9626 14 31.5782L17 34.5782V40.1845V45.7907L17.2344 46.0157C17.375 46.1657 17.5719 46.2501 17.75 46.2501C17.9281 46.2501 18.125 46.1657 18.2656 46.0157L18.5 45.7907V40.3907V35.0001H25.0156H31.5406L31.7656 34.7657C32.075 34.4657 32.075 34.0345 31.7656 33.7345L31.5406 33.5001H25.3906C21.8844 33.5001 19.25 33.4626 19.2687 33.4157C19.2875 33.3689 19.7187 32.6939 20.2344 31.9157L21.1719 30.5001H28.2594H35.3469L36.3406 32.0001L37.3437 33.5001H36.0312C34.7562 33.5001 34.7 33.5095 34.4844 33.7345C34.175 34.0345 34.175 34.4657 34.4844 34.7657C34.7094 35.0001 34.7375 35.0001 36.3594 35.0001H38L37.9812 43.0251L37.9531 51.0501L37.6906 51.2751L37.4281 51.5001L28.1844 51.4814L18.95 51.4532L18.725 51.1907C18.5187 50.947 18.5 50.8439 18.5 49.9439C18.5 49.0251 18.4812 48.9407 18.2656 48.7345C17.9656 48.4251 17.5344 48.4251 17.225 48.7345C16.9906 48.9689 16.9812 48.997 17.0187 50.1689C17.0469 51.5001 17.1594 51.847 17.7312 52.4001C18.3875 53.0376 17.8062 53.0095 28.3437 52.9814C37.475 52.9532 37.8781 52.9439 38.2156 52.7751C38.6937 52.5407 39.1156 52.1095 39.3219 51.6407C39.4812 51.3032 39.5 50.947 39.5 47.6376V44.0189L40.5594 43.9814C41.7125 43.9532 42.0969 43.822 42.6031 43.3157C43.175 42.7532 43.2031 42.6314 43.25 40.4564L43.2969 38.4501L43.5594 38.2251C43.8125 38.0095 43.8594 38.0001 45.4906 38.0001H47.1687L47.2812 38.272C47.4312 38.6564 47.9187 39.1251 48.3594 39.322C48.875 39.5564 50.8812 39.5751 51.5469 39.3501C52.1562 39.1345 52.6719 38.6095 52.85 37.9907C53.0375 37.372 53.0375 37.0907 52.85 36.5282C52.6344 35.8814 52.2969 35.4782 51.7437 35.2251C51.3219 35.0282 51.1344 35.0001 50.0844 35.0001C49.4375 35.0001 48.7625 35.047 48.5844 35.1126C48.0969 35.272 47.6 35.6657 47.3187 36.097L47.075 36.4907L45.2281 36.5189C43.2125 36.547 42.9687 36.6032 42.3969 37.1845C41.825 37.747 41.7969 37.8689 41.75 40.0439L41.7031 42.0501L41.4406 42.2751C41.2062 42.472 41.0937 42.5001 40.3344 42.5001H39.5V38.5439V34.5782L42.5 31.5782C44.6656 29.4032 45.5 28.5126 45.5 28.3626C45.5 28.072 45.2656 27.6314 45.0781 27.5564C44.5812 27.3689 44.5062 27.4251 41.6469 30.2751L38.8625 33.0595L37.6812 31.2782C37.0344 30.3032 36.3969 29.3845 36.275 29.2532L36.0406 29.0001H28.3437C21.875 29.0001 20.6094 29.0189 20.3937 29.1314C20.225 29.2157 19.6812 29.947 18.875 31.1564L17.6187 33.0407L14.8437 30.2657C11.9656 27.397 11.9 27.3501 11.4219 27.6126ZM50.975 36.5939C51.1062 36.6407 51.275 36.7814 51.3594 36.9126C51.4906 37.1095 51.5 37.2032 51.4062 37.4751C51.2656 37.9251 50.9562 38.0282 49.8594 37.9814C48.9969 37.9532 48.9406 37.9439 48.7156 37.6814C48.4437 37.3532 48.4812 37.0345 48.8375 36.7064C49.0437 36.5282 49.175 36.5001 49.9062 36.5001C50.3656 36.5001 50.8437 36.5376 50.975 36.5939Z" fill="black"/>
<path d="M25.0156 37.9344C24.3688 38.1032 23.6094 38.5344 23.2625 38.9282C22.5781 39.7063 22.1938 41.0188 22.2875 42.2188C22.4188 43.9626 23.3 45.6594 24.8 47.0469C25.6531 47.8438 26.6 48.3688 27.5094 48.5563C28.925 48.8469 30.425 48.2751 31.8875 46.8688C33.0125 45.8001 33.7063 44.6188 34.0719 43.1563C34.5219 41.3751 33.9969 39.4438 32.7969 38.5438C31.5875 37.6344 29.8438 37.6251 28.6531 38.5344L28.2313 38.8626L27.9781 38.6188C27.3313 38.0001 25.9813 37.6907 25.0156 37.9344ZM26.6469 39.5938C26.8531 39.6876 27.2094 40.0063 27.4531 40.2969C27.8375 40.7376 27.9406 40.8126 28.2313 40.8126C28.5125 40.8126 28.6344 40.7376 29.0844 40.2407C29.6844 39.5751 30.0219 39.4063 30.7063 39.4063C31.9625 39.4063 32.8625 40.5501 32.7125 41.9469C32.5719 43.3813 31.7938 44.8813 30.65 45.9501C28.8969 47.5813 27.4531 47.5063 25.6156 45.6876C24.9688 45.0501 24.7344 44.7313 24.425 44.0938C24.0313 43.2969 23.75 42.2844 23.7594 41.6563C23.7594 41.2157 24.0313 40.4376 24.3125 40.0907C24.8656 39.4063 25.8688 39.1907 26.6469 39.5938Z" fill="black"/>
</svg>
