<svg width="64" height="64" viewBox="0 0 64 64" fill="none" xmlns="http://www.w3.org/2000/svg">
<path d="M30.1667 19.1667C30.1667 21.1925 27.7045 22.8333 24.6667 22.8333C21.6288 22.8333 19.1667 21.1925 19.1667 19.1667C19.1667 17.1408 21.6288 15.5 24.6667 15.5C27.7045 15.5 30.1667 17.1408 30.1667 19.1667ZM30.1667 19.1667H46.6667M17.3333 30.1667H46.6667C47.1529 30.1667 47.6192 30.3598 47.963 30.7036C48.3068 31.0475 48.5 31.5138 48.5 32V32.9167C48.5 35.6667 43.8855 43.1338 41.1667 44.8333V46.6667C41.1667 47.1529 40.9735 47.6192 40.6297 47.963C40.2859 48.3068 39.8196 48.5 39.3333 48.5H24.6667C24.1804 48.5 23.7141 48.3068 23.3703 47.963C23.0265 47.6192 22.8333 47.1529 22.8333 46.6667V44.8333C19.7405 42.901 15.5 35.6667 15.5 32.9167V32C15.5 31.5138 15.6932 31.0475 16.037 30.7036C16.3808 30.3598 16.8471 30.1667 17.3333 30.1667Z" stroke="black" stroke-width="2" stroke-linecap="round" stroke-linejoin="round"/>
</svg>
