<svg width="64" height="64" viewBox="0 0 64 64" fill="none" xmlns="http://www.w3.org/2000/svg">
<path d="M24.5062 44.9795L22.0089 49.4854" stroke="black" stroke-width="2" stroke-linecap="round" stroke-linejoin="round"/>
<path d="M39.4939 44.9795L41.9912 49.4854" stroke="black" stroke-width="2" stroke-linecap="round" stroke-linejoin="round"/>
<path d="M32 46.9878C40.277 46.9878 46.9867 40.2781 46.9867 32.0011C46.9867 23.7242 40.277 17.0144 32 17.0144C23.7231 17.0144 17.0133 23.7242 17.0133 32.0011C17.0133 40.2781 23.7231 46.9878 32 46.9878Z" stroke="black" stroke-width="2" stroke-linecap="round" stroke-linejoin="round"/>
<path d="M17.5148 28.006C16.3642 27.1436 15.4861 25.9684 14.9851 24.6206C14.4842 23.2729 14.3816 21.8094 14.6895 20.4049C14.9975 19.0004 15.7031 17.7142 16.722 16.6997C17.741 15.6852 19.0303 14.9853 20.4361 14.6835C21.842 14.3817 23.305 14.4908 24.6505 14.9976C25.9961 15.5045 27.1674 16.3878 28.0247 17.5422" stroke="black" stroke-width="2" stroke-linecap="round" stroke-linejoin="round"/>
<path d="M32 17.0144L32.0001 14.5166" stroke="black" stroke-width="2" stroke-linecap="round" stroke-linejoin="round"/>
<path d="M32 24.5078V32.0011" stroke="black" stroke-width="2" stroke-linecap="round" stroke-linejoin="round"/>
<path d="M32 32.001L37.2986 37.2996" stroke="black" stroke-width="2" stroke-linecap="round" stroke-linejoin="round"/>
<path d="M46.4854 28.006C47.6359 27.1436 48.5141 25.9684 49.015 24.6206C49.516 23.2729 49.6186 21.8094 49.3106 20.4049C49.0026 19.0004 48.2971 17.7142 47.2781 16.6997C46.2592 15.6852 44.9698 14.9853 43.564 14.6835C42.1582 14.3817 40.6952 14.4908 39.3496 14.9976C38.0041 15.5045 36.8328 16.3878 35.9755 17.5422" stroke="black" stroke-width="2" stroke-linecap="round" stroke-linejoin="round"/>
</svg>
