<svg width="64" height="64" viewBox="0 0 64 64" fill="none" xmlns="http://www.w3.org/2000/svg">
<path d="M31.9999 11.9612C30.7281 11.9612 29.6796 12.9993 29.6796 14.2789C29.6796 15.5594 30.7281 16.5984 31.9999 16.5984C33.2804 16.5984 34.3203 15.5594 34.3203 14.2789C34.3203 12.9993 33.2804 11.9612 31.9999 11.9612ZM31.9999 13.441C32.464 13.441 32.8421 13.8166 32.8421 14.2789C32.8421 14.7421 32.464 15.1185 31.9999 15.1185C31.5445 15.1185 31.1578 14.7421 31.1578 14.2789C31.1578 13.8166 31.5445 13.441 31.9999 13.441ZM25.2109 18.6798C24.8585 18.6798 24.5492 18.9376 24.4804 19.2899L24.3343 20.2095L22.7187 20.9399C22.4093 21.0946 22.2289 21.4384 22.3062 21.7821C22.3835 22.1173 22.6843 22.3579 23.0281 22.3579H40.9804C41.3242 22.3579 41.6249 22.1173 41.6937 21.7821C41.7796 21.4384 41.5992 21.0946 41.2898 20.9399L39.6742 20.2095L39.5195 19.2899C39.4593 18.9376 39.1499 18.6798 38.7976 18.6798H25.2109ZM31.1578 23.922L29.1296 23.9392L29.2156 43.6876L31.2609 43.6704L31.1578 23.922ZM37.0617 24.0852L36.4773 41.1438L38.6429 41.247L39.2273 24.1798L37.0617 24.0852ZM27.2046 24.0938L25.039 24.1712L25.5804 46.1454L27.746 46.0595L27.4539 34.2431C26.8265 33.9509 26.3968 33.3235 26.3882 32.5931C26.3624 31.8712 26.7749 31.2438 27.3679 30.9345L27.2046 24.0938ZM33.0484 24.1024L32.9968 30.6251L35.1624 30.5907L35.214 24.1454L33.0484 24.1024ZM35.7296 31.8798L32.1289 31.9399L32.1374 33.0485L35.6867 32.9884L35.7296 31.8798ZM28.2187 32.0087C27.9093 32.0173 27.6687 32.2665 27.6773 32.5759C27.6773 32.8767 27.9351 33.1259 28.2359 33.1173H28.2445L28.2359 32.0087H28.2187ZM35.1367 34.2946L32.971 34.329L32.9367 38.4884L35.1023 38.5313L35.1367 34.2946ZM33.4007 45.7157C33.3749 45.7157 33.332 45.7243 33.3062 45.7243C33.0656 45.7587 32.8679 45.8876 32.7304 46.0766L30.8054 48.7149C30.6593 48.904 30.6078 49.136 30.6421 49.3681C30.6851 49.6087 30.8054 49.8149 31.0031 49.9524L33.6242 51.8602C33.8218 52.0063 34.0539 52.0665 34.2859 52.0321C34.5265 51.9977 34.7328 51.8602 34.8703 51.6798C35.4031 50.9321 36.2453 49.7806 36.7867 49.0415C36.9242 48.8524 36.9843 48.6118 36.9499 48.3798C36.9156 48.1563 36.7867 47.9415 36.5976 47.7954L33.9679 45.8876C33.8046 45.7673 33.5984 45.7157 33.4007 45.7157Z" fill="black"/>
</svg>
