<svg width="64" height="64" viewBox="0 0 64 64" fill="none" xmlns="http://www.w3.org/2000/svg">
<path d="M22.375 34.4062H15.5C15.2265 34.4062 14.9642 34.2976 14.7708 34.1042C14.5774 33.9108 14.4688 33.6485 14.4688 33.375C14.4688 33.1015 14.5774 32.8392 14.7708 32.6458C14.9642 32.4524 15.2265 32.3437 15.5 32.3437H21.8233L24.2656 28.6777C24.3597 28.5358 24.4874 28.4195 24.6373 28.339C24.7873 28.2586 24.9548 28.2165 25.125 28.2165C25.2952 28.2165 25.4627 28.2586 25.6127 28.339C25.7626 28.4195 25.8903 28.5358 25.9844 28.6777L30.625 35.6403L32.5156 32.8027C32.61 32.6613 32.7378 32.5454 32.8877 32.4653C33.0376 32.3853 33.205 32.3435 33.375 32.3437H37.5C37.7735 32.3437 38.0358 32.4524 38.2292 32.6458C38.4226 32.8392 38.5312 33.1015 38.5312 33.375C38.5312 33.6485 38.4226 33.9108 38.2292 34.1042C38.0358 34.2976 37.7735 34.4062 37.5 34.4062H33.9267L31.4844 38.0723C31.3903 38.2142 31.2626 38.3305 31.1127 38.411C30.9627 38.4914 30.7952 38.5335 30.625 38.5335C30.4548 38.5335 30.2873 38.4914 30.1373 38.411C29.9874 38.3305 29.8597 38.2142 29.7656 38.0723L25.125 31.1097L23.2344 33.9473C23.14 34.0887 23.0122 34.2046 22.8623 34.2847C22.7124 34.3647 22.545 34.4065 22.375 34.4062ZM40.5938 17.2188C36.9844 17.2188 33.8459 18.8464 32 21.5741C30.1541 18.8464 27.0156 17.2188 23.4062 17.2188C20.6722 17.2219 18.051 18.3094 16.1177 20.2427C14.1844 22.176 13.0969 24.7972 13.0938 27.5312V27.9077C13.1024 28.1812 13.2194 28.44 13.4189 28.6273C13.5177 28.72 13.6338 28.7924 13.7605 28.8402C13.8873 28.8881 14.0222 28.9105 14.1577 28.9062C14.2931 28.902 14.4263 28.871 14.5498 28.8153C14.6733 28.7595 14.7846 28.6799 14.8773 28.5811C14.97 28.4823 15.0424 28.3662 15.0902 28.2395C15.1381 28.1127 15.1605 27.9778 15.1562 27.8423V27.5312C15.1585 25.3439 16.0284 23.2468 17.5751 21.7001C19.1218 20.1534 21.2189 19.2835 23.4062 19.2812C26.8919 19.2812 29.8189 21.1427 31.0461 24.1402C31.1238 24.3293 31.256 24.4911 31.4258 24.6049C31.5957 24.7188 31.7955 24.7796 32 24.7796C32.2045 24.7796 32.4043 24.7188 32.5742 24.6049C32.744 24.4911 32.8762 24.3293 32.9539 24.1402C34.1811 21.1427 37.1081 19.2812 40.5938 19.2812C42.7811 19.2835 44.8782 20.1534 46.4249 21.7001C47.9716 23.2468 48.8415 25.3439 48.8438 27.5312C48.8437 37.1098 34.817 45.6898 32 47.3158C30.3087 46.343 24.5939 42.878 20.285 38.1789C20.1954 38.0726 20.0852 37.9856 19.9611 37.923C19.837 37.8604 19.7015 37.8235 19.5628 37.8146C19.4241 37.8056 19.285 37.8248 19.1539 37.871C19.0228 37.9172 18.9024 37.9894 18.7999 38.0833C18.6974 38.1772 18.615 38.2909 18.5576 38.4175C18.5001 38.5441 18.4688 38.6809 18.4656 38.8199C18.4624 38.9589 18.4874 39.097 18.5389 39.2261C18.5905 39.3552 18.6676 39.4726 18.7656 39.5711C24.0834 45.3753 31.2111 49.2459 31.5119 49.4075C31.6619 49.4881 31.8296 49.5303 32 49.5303C32.1704 49.5303 32.3381 49.4881 32.4881 49.4075C35.7262 47.5871 38.7804 45.4574 41.6078 43.0481C47.7781 37.7733 50.9062 32.55 50.9062 27.5312C50.9031 24.7972 49.8156 22.176 47.8823 20.2427C45.949 18.3094 43.3278 17.2219 40.5938 17.2188Z" fill="black"/>
</svg>
