<svg width="64" height="64" viewBox="0 0 64 64" fill="none" xmlns="http://www.w3.org/2000/svg">
<path d="M24.3999 36.4333C25.2398 36.4333 26.0452 36.767 26.6391 37.3608C27.2329 37.9547 27.5666 38.7602 27.5666 39.6" stroke="black" stroke-width="2" stroke-linecap="round" stroke-linejoin="round"/>
<path d="M42.2917 32.0001C45.3522 32.0001 47.8333 29.519 47.8333 26.4584C47.8333 23.3978 45.3522 20.9167 42.2917 20.9167C39.2311 20.9167 36.75 23.3978 36.75 26.4584C36.75 29.519 39.2311 32.0001 42.2917 32.0001Z" stroke="black" stroke-width="2" stroke-linecap="round" stroke-linejoin="round"/>
<path d="M24.875 47.8334C29.6844 47.8334 33.5833 43.9346 33.5833 39.1251C33.5833 34.3156 29.6844 30.4167 24.875 30.4167C20.0655 30.4167 16.1666 34.3156 16.1666 39.1251C16.1666 43.9346 20.0655 47.8334 24.875 47.8334Z" stroke="black" stroke-width="2" stroke-linecap="round" stroke-linejoin="round"/>
<path d="M24.875 24.0834C27.0611 24.0834 28.8333 22.3112 28.8333 20.1251C28.8333 17.939 27.0611 16.1667 24.875 16.1667C22.6888 16.1667 20.9166 17.939 20.9166 20.1251C20.9166 22.3112 22.6888 24.0834 24.875 24.0834Z" stroke="black" stroke-width="2" stroke-linecap="round" stroke-linejoin="round"/>
</svg>
