<svg width="64" height="64" viewBox="0 0 64 64" fill="none" xmlns="http://www.w3.org/2000/svg">
<path d="M31.4068 15.3931C30.4605 15.3931 29.6951 16.1607 29.6951 17.1069C29.6951 18.0532 30.4605 18.8186 31.4067 18.8186C32.353 18.8186 33.1206 18.053 33.1206 17.1069C33.1206 16.1609 32.3529 15.3931 31.4067 15.3931L31.4068 15.3931ZM31.4727 20.3369C31.1623 26.316 29.8338 30.8179 28.2273 30.8179C27.8289 30.8179 27.4323 30.5212 27.0782 30.0136C27.1689 32.9643 26.734 34.8502 25.6829 34.7685C25.3023 34.739 24.8595 34.4561 24.4085 33.9665C25.8326 37.5103 28.5442 39.9255 31.6771 39.9255C34.8099 39.9255 37.5216 37.5103 38.9456 33.9665C38.4947 34.4561 38.0542 34.7389 37.6735 34.7685C36.5291 34.8574 36.0653 32.664 36.2761 29.2445C35.812 30.2152 35.2775 30.8177 34.716 30.8177C33.1094 30.8177 31.7833 26.316 31.4728 20.3368L31.4727 20.3369ZM21.3301 36.1154C17.7114 37.288 15.3755 39.0648 15.3755 41.0351C15.3755 44.5624 22.7452 47.4403 31.8418 47.4402C40.9385 47.44 48.3082 44.5624 48.3082 41.0351C48.3082 39.065 45.9723 37.288 42.3535 36.1154C44.2623 37.0238 45.4342 38.1713 45.4342 39.4334C45.4342 42.3453 39.3517 44.6935 31.8418 44.6935C24.3321 44.6936 18.2495 42.3453 18.2495 39.4334C18.2495 38.1713 19.4213 37.0236 21.3301 36.1154ZM26.1751 37.0867C24.1887 37.7232 22.8901 38.6425 22.8901 39.7189C22.8901 41.6343 26.9024 43.2083 31.8418 43.2083C36.7812 43.2083 40.7935 41.6343 40.7935 39.719C40.7935 38.6427 39.495 37.7233 37.5085 37.0868C38.559 37.5815 39.2334 38.1696 39.2334 38.8601C39.2334 40.4411 35.9195 41.7208 31.8418 41.7208C27.7642 41.7208 24.4502 40.4411 24.4502 38.8599C24.4502 38.1696 25.1247 37.5815 26.175 37.0868L26.1751 37.0867Z" fill="black"/>
</svg>
