<svg width="64" height="64" viewBox="0 0 64 64" fill="none" xmlns="http://www.w3.org/2000/svg">
<path d="M44 31.9999H47V34.9999H44C41.93 34.9999 39.89 34.4749 38 33.4999C34.25 35.4499 29.75 35.4499 26 33.4999C24.11 34.4749 22.055 34.9999 20 34.9999H17V31.9999H20C22.085 31.9999 24.17 31.2949 26 30.0049C29.66 32.5699 34.34 32.5699 38 30.0049C39.83 31.2949 41.915 31.9999 44 31.9999ZM44 22.9999H47V25.9999H44C41.93 25.9999 39.89 25.4749 38 24.4999C34.25 26.4499 29.75 26.4499 26 24.4999C24.11 25.4749 22.055 25.9999 20 25.9999H17V22.9999H20C22.085 22.9999 24.17 22.2949 26 21.0049C29.66 23.5699 34.34 23.5699 38 21.0049C39.83 22.2949 41.915 22.9999 44 22.9999ZM44 40.9999H47V43.9999H44C41.93 43.9999 39.89 43.4749 38 42.4999C34.25 44.4499 29.75 44.4499 26 42.4999C24.11 43.4749 22.055 43.9999 20 43.9999H17V40.9999H20C22.085 40.9999 24.17 40.2949 26 39.0049C29.66 41.5699 34.34 41.5699 38 39.0049C39.83 40.2949 41.915 40.9999 44 40.9999Z" fill="black"/>
</svg>
