<svg width="64" height="64" viewBox="0 0 64 64" fill="none" xmlns="http://www.w3.org/2000/svg">
<path d="M39.1491 15.4335C38.9655 15.4341 38.7814 15.4409 38.5967 15.4539C34.145 15.7659 29.3766 19.5324 28.6041 24.6123L48.7344 25.4604V20.304C48.1655 19.7561 47.5802 19.2317 46.9799 18.7446C44.5478 16.7712 41.9037 15.4235 39.1492 15.4334L39.1491 15.4335ZM22.8277 16.8696C20.2833 16.8786 17.6382 17.9182 15.2656 20.1049V25.8213L27.3669 24.4984L27.3414 24.4946C27.6136 22.6181 28.3487 20.9117 29.3918 19.4502C27.4953 17.7536 25.2057 16.8613 22.8277 16.8697L22.8277 16.8696ZM30.5806 25.9761C28.8586 25.9579 22.8554 26.8294 22.8742 27.88C22.9066 29.6765 30.2172 31.5048 29.5346 31.6078C22.617 32.6518 18.779 32.6628 16.4848 34.7563C13.7487 37.2528 31.6008 40.446 29.452 41.0624C25.4299 42.2163 21.8709 43.6116 21.7878 47.279C21.7759 47.8077 21.8441 48.2904 21.978 48.7345H25.8413C24.7569 47.2836 24.1503 45.8753 24.8148 45.5063C25.5469 46.5685 26.3962 47.6948 27.3582 48.7345H31.8784C30.5091 48.0375 28.241 46.6667 28.321 45.2593C28.4335 43.2786 32.9876 41.9014 33.2346 41.9014C33.2346 41.9014 29.8044 43.7565 29.7283 45.4076C29.6744 46.5804 31.2975 48.0081 32.2378 48.7345H35.8924C34.7354 47.8679 34.0306 46.9823 34.4562 46.4925C35.5488 47.2706 36.7846 48.0702 38.1002 48.7345H45.6037C41.6142 47.6103 38.3838 46.4373 37.502 44.999C36.785 43.8297 42.5899 43.0417 41.7494 39.4512C41.3423 37.7118 37.6544 36.5617 27.4603 35.0478C25.6767 34.7828 36.9074 33.6798 36.5882 31.0322C36.4018 29.4868 29.3257 29.1443 28.5318 28.4354C28.1981 28.1375 28.944 26.3569 30.5805 25.9763L30.5806 25.9761ZM20.4283 35.6602C22.7751 35.65 26.3616 37.2369 29.0627 38.244L28.9368 39.0645C26.9397 38.3188 21.631 36.4303 19.9761 35.6841C20.1209 35.6686 20.2719 35.6608 20.4283 35.6602ZM39.4291 39.4432C39.4365 39.4428 39.4361 39.4487 39.4281 39.461C39.7023 40.3176 37.9173 42.5583 35.0823 42.4733C36.0774 41.9706 39.2822 39.4496 39.4291 39.4432V39.4432Z" fill="black"/>
</svg>
