<svg width="64" height="64" viewBox="0 0 64 64" fill="none" xmlns="http://www.w3.org/2000/svg">
<path d="M21.8937 27.186H16.4809C15.9414 27.1866 15.4242 27.4011 15.0427 27.7826C14.6612 28.164 14.4467 28.6813 14.4462 29.2207V48.5799C14.4467 49.1193 14.6612 49.6366 15.0427 50.018C15.4242 50.3995 15.9414 50.614 16.4809 50.6146H48.5192C49.0587 50.614 49.5759 50.3995 49.9574 50.018C50.3389 49.6366 50.5534 49.1193 50.5539 48.5799V29.2207C50.5534 28.6813 50.3389 28.164 49.9574 27.7826C49.5759 27.4011 49.0587 27.1866 48.5192 27.186H43.3453" stroke="black" stroke-linecap="round" stroke-linejoin="round"/>
<path d="M42.0205 44.0178H23.2185C22.9908 44.0178 22.8063 44.2024 22.8063 44.43V46.8633C22.8063 47.0909 22.9908 47.2755 23.2185 47.2755H42.0205C42.2481 47.2755 42.4327 47.0909 42.4327 46.8633V44.43C42.4327 44.2024 42.2481 44.0178 42.0205 44.0178Z" stroke="black" stroke-linecap="round" stroke-linejoin="round"/>
<path d="M22.393 38.1597H19.9216C19.694 38.1597 19.5094 38.3442 19.5094 38.5719V41.0433C19.5094 41.271 19.694 41.4555 19.9216 41.4555H22.393C22.6207 41.4555 22.8053 41.271 22.8053 41.0433V38.5719C22.8053 38.3442 22.6207 38.1597 22.393 38.1597Z" stroke="black" stroke-linecap="round" stroke-linejoin="round"/>
<path d="M28.1241 38.1597H25.6527C25.425 38.1597 25.2405 38.3442 25.2405 38.5719V41.0433C25.2405 41.271 25.425 41.4555 25.6527 41.4555H28.1241C28.3518 41.4555 28.5364 41.271 28.5364 41.0433V38.5719C28.5364 38.3442 28.3518 38.1597 28.1241 38.1597Z" stroke="black" stroke-linecap="round" stroke-linejoin="round"/>
<path d="M34.2674 38.7227V41.0433C34.2676 41.0974 34.257 41.151 34.2364 41.201C34.2158 41.251 34.1855 41.2964 34.1473 41.3347C34.1091 41.373 34.0637 41.4034 34.0138 41.4241C33.9638 41.4448 33.9103 41.4555 33.8562 41.4555H31.3838C31.2747 41.4555 31.1701 41.4122 31.093 41.3351C31.0159 41.2579 30.9725 41.1533 30.9725 41.0443V38.7236" stroke="black" stroke-linecap="round" stroke-linejoin="round"/>
<path d="M39.5853 38.1597H37.1139C36.8862 38.1597 36.7017 38.3442 36.7017 38.5719V41.0433C36.7017 41.271 36.8862 41.4555 37.1139 41.4555H39.5853C39.813 41.4555 39.9975 41.271 39.9975 41.0433V38.5719C39.9975 38.3442 39.813 38.1597 39.5853 38.1597Z" stroke="black" stroke-linecap="round" stroke-linejoin="round"/>
<path d="M45.3163 38.1597H42.8448C42.6172 38.1597 42.4326 38.3442 42.4326 38.5719V41.0433C42.4326 41.271 42.6172 41.4555 42.8448 41.4555H45.3163C45.5439 41.4555 45.7285 41.271 45.7285 41.0433V38.5719C45.7285 38.3442 45.5439 38.1597 45.3163 38.1597Z" stroke="black" stroke-linecap="round" stroke-linejoin="round"/>
<path d="M22.393 32.3013H19.9216C19.694 32.3013 19.5094 32.4858 19.5094 32.7135V35.1849C19.5094 35.4126 19.694 35.5971 19.9216 35.5971H22.393C22.6207 35.5971 22.8053 35.4126 22.8053 35.1849V32.7135C22.8053 32.4858 22.6207 32.3013 22.393 32.3013Z" stroke="black" stroke-linecap="round" stroke-linejoin="round"/>
<path d="M26.8953 35.5971H25.6517C25.5976 35.5971 25.5441 35.5865 25.4941 35.5657C25.4442 35.545 25.3988 35.5146 25.3606 35.4763C25.3224 35.438 25.2921 35.3926 25.2715 35.3426C25.2509 35.2926 25.2404 35.239 25.2405 35.1849V34.3281M39.9985 34.3281V35.1849C39.9985 35.239 39.9878 35.2925 39.9671 35.3425C39.9464 35.3925 39.916 35.4378 39.8777 35.476C39.8394 35.5142 39.7939 35.5445 39.7439 35.5651C39.6939 35.5857 39.6403 35.5963 39.5862 35.5961H38.3437" stroke="black" stroke-linecap="round" stroke-linejoin="round"/>
<path d="M45.3163 32.3013H42.8448C42.6172 32.3013 42.4326 32.4858 42.4326 32.7135V35.1849C42.4326 35.4126 42.6172 35.5971 42.8448 35.5971H45.3163C45.5439 35.5971 45.7285 35.4126 45.7285 35.1849V32.7135C45.7285 32.4858 45.5439 32.3013 45.3163 32.3013Z" stroke="black" stroke-linecap="round" stroke-linejoin="round"/>
<path d="M42.5394 32.3806L32.6195 39.9868L22.7005 32.3806C22.4493 32.1885 22.2459 31.941 22.1059 31.6573C21.966 31.3737 21.8934 31.0617 21.8937 30.7454V16.0334C21.8937 15.5965 22.0672 15.1775 22.376 14.8685C22.6848 14.5595 23.1037 14.3858 23.5406 14.3855H41.6963C42.1334 14.3855 42.5526 14.5591 42.8616 14.8682C43.1707 15.1772 43.3443 15.5964 43.3443 16.0334V30.7454C43.3446 31.0617 43.272 31.3737 43.132 31.6573C42.9921 31.941 42.7886 32.1885 42.5374 32.3806" stroke="black" stroke-linecap="round" stroke-linejoin="round"/>
<path d="M28.5353 30.1157C28.8971 30.5911 29.3726 30.968 29.918 31.2116C30.4635 31.4553 31.0614 31.5579 31.6569 31.5101H33.5408C34.3839 31.509 35.192 31.1732 35.7875 30.5764C36.383 29.9797 36.7171 29.1708 36.7163 28.3278C36.7171 27.4847 36.383 26.6759 35.7875 26.0791C35.192 25.4824 34.3839 25.1465 33.5408 25.1455H31.4591C30.6161 25.1445 29.808 24.8086 29.2125 24.2119C28.617 23.6151 28.2829 22.8063 28.2837 21.9632C28.2829 21.1202 28.617 20.3113 29.2125 19.7145C29.808 19.1178 30.6161 18.7819 31.4591 18.7809H33.343C33.9386 18.7332 34.5366 18.836 35.0821 19.0798C35.6275 19.3236 36.103 19.7006 36.4646 20.1762" stroke="black" stroke-linecap="round" stroke-linejoin="round"/>
</svg>
