<svg width="64" height="64" viewBox="0 0 64 64" fill="none" xmlns="http://www.w3.org/2000/svg">
<path fill-rule="evenodd" clip-rule="evenodd" d="M29.3825 16.0806L31.2725 17.2146C33.6696 18.6316 35.5112 20.8245 36.4925 23.4306C36.8255 22.6806 37.2215 21.9531 37.589 21.2181L39.0605 22.6896C42.3635 25.9926 45.5 30.9426 45.5 35.7501C45.5 42.1971 41.525 46.2846 35.165 46.9911L33.08 47.2221L33.536 45.1746C33.8915 43.5726 33.956 42.5256 33.881 41.7921C33.791 40.8696 33.353 40.1451 32.807 39.4251C32.285 38.7351 31.7675 38.0436 31.3535 37.2801C29.651 38.6256 28.991 39.8406 28.7795 40.8411C28.5095 42.1221 28.892 43.4316 29.591 44.8296L30.824 47.2956L28.085 46.9911C24.221 46.5621 20.414 43.9806 18.914 40.2141C17.3465 36.2736 18.455 31.5051 23.519 27.1161C26.879 24.2046 28.658 20.4291 29.3825 16.0806ZM31.3805 21.0306C30.2375 24.2406 28.043 27.1656 25.4825 29.3841C21.116 33.1686 20.7245 36.6501 21.7025 39.1041C22.43 40.9341 24.0005 42.4386 25.862 43.2921C25.6445 42.2812 25.6384 41.2364 25.844 40.2231C26.333 37.9041 28.001 35.7306 31.205 33.7281L32.8205 32.7186L33.4235 34.5261C33.9515 36.1101 35.0465 37.2306 35.903 38.6211C36.845 40.1511 37.025 41.9061 36.833 43.6581C40.763 42.6756 42.5 39.6951 42.5 35.7501C42.5 32.4171 40.49 29.1471 38.495 26.5911C37.673 28.4331 35.9405 29.0811 34.25 29.9271V27.5001C34.25 25.4466 33.4145 22.9431 31.3805 21.0321V21.0306Z" fill="black"/>
</svg>
