<svg width="64" height="64" viewBox="0 0 64 64" fill="none" xmlns="http://www.w3.org/2000/svg">
<g clip-path="url(#clip0_293_491)">
<path d="M28.2891 12.1406C27.8594 12.4063 27.0937 13.3047 27 13.6484C26.8594 14.1641 27.0234 14.6641 27.4609 15.0781L27.6953 15.3047L27.1953 15.8438C26.75 16.3047 26.6875 16.4141 26.6875 16.6719C26.6875 17.0625 26.9375 17.3125 27.3359 17.3125C27.5703 17.3125 27.6953 17.2344 28.1016 16.8594C28.7734 16.2422 29.0312 15.8203 29.0312 15.3438C29.0312 14.9063 28.9141 14.6328 28.5703 14.3125C28.4375 14.1797 28.3281 14.0469 28.3281 14C28.3281 13.9609 28.5547 13.6875 28.8359 13.3984C29.4219 12.7891 29.4766 12.5859 29.1172 12.2266C28.8516 11.9688 28.6172 11.9375 28.2891 12.1406Z" fill="black"/>
<path d="M32.1875 12.2188C31.8281 12.4844 31.25 13.1172 31.0859 13.4375C30.9531 13.6953 30.9375 14.2109 31.0547 14.5156C31.0937 14.6328 31.2656 14.8672 31.4219 15.0469L31.7109 15.3672L31.1875 15.8984C30.7734 16.3281 30.6719 16.4844 30.6719 16.6797C30.6719 17.0312 30.9687 17.3125 31.3437 17.3125C31.5859 17.3125 31.7031 17.2422 32.1953 16.7578C32.8437 16.1328 33.0312 15.8125 33.0312 15.3203C33.0312 14.9141 32.9297 14.7109 32.5625 14.3281L32.2812 14.0312L32.7656 13.5391C33.0234 13.2656 33.2656 12.9453 33.2969 12.8281C33.3984 12.4219 33.0625 12 32.6328 12C32.5547 12 32.3516 12.1016 32.1875 12.2188Z" fill="black"/>
<path d="M35.8125 12.6016C35.0781 13.3125 34.9688 13.5 34.9688 14.0078C34.9688 14.4062 35.1172 14.7188 35.4609 15.0469C35.5781 15.1562 35.6719 15.2734 35.6719 15.3125C35.6719 15.3516 35.4453 15.625 35.1641 15.9141C34.7578 16.3359 34.6562 16.4844 34.6562 16.6797C34.6562 17.0312 34.9531 17.3125 35.3281 17.3125C35.5703 17.3125 35.6875 17.2422 36.1953 16.7422C36.5156 16.4375 36.8281 16.0938 36.8828 15.9844C37.1719 15.4141 37.0859 14.8594 36.6172 14.3359L36.3125 13.9922L36.8125 13.4688C37.2422 13.0312 37.3125 12.9141 37.3125 12.6719C37.3125 12.2969 37.0312 12 36.6797 12C36.4766 12 36.3203 12.1094 35.8125 12.6016Z" fill="black"/>
<path d="M14.1953 15.0469C13.1797 15.5313 12.3125 16.6641 12.0703 17.8359C11.8906 18.7031 12.1328 19.1484 13.0313 19.6172C13.3438 19.7813 13.6172 19.9219 13.6328 19.9375C13.6485 19.9531 13.5938 20.2188 13.5156 20.5313C13.3203 21.2891 13.3203 22.7656 13.5156 23.4766C13.9141 24.9453 14.8516 26.2422 16.0703 27.0234C18.3906 28.5078 22.0938 29.9297 25.4375 30.625L26.6485 30.8828L26.6875 34L26.7266 37.1172L26.9766 37.7734C27.2813 38.5547 27.6016 39.0781 28.1328 39.6484C28.5078 40.0547 29.4922 40.7656 29.8125 40.8672C29.9531 40.9141 29.9688 40.9922 29.9688 41.7969V42.6797L29.6563 42.7344C29.2656 42.7969 28.836 43.2109 28.7188 43.6406C28.6641 43.8516 28.6406 45.1328 28.6563 47.4844C28.6797 51.4375 28.6641 51.3047 29.2422 51.7422L29.5235 51.9609H32H34.4766L34.7578 51.7422C35.336 51.3047 35.3203 51.4375 35.3438 47.4844C35.3594 45.1328 35.336 43.8516 35.2813 43.6406C35.1641 43.2109 34.7344 42.7969 34.3438 42.7344L34.0313 42.6797V41.7969C34.0313 40.9922 34.0469 40.9141 34.1875 40.8672C34.4844 40.7734 35.4844 40.0625 35.8438 39.6875C36.3594 39.1406 36.7813 38.4375 37.0469 37.6953L37.2735 37.0391L37.3125 33.9609L37.3516 30.8828L38.6016 30.6172C41.4219 30.0313 44.1875 29.0469 46.6094 27.7656C48.2813 26.8828 48.8906 26.3984 49.586 25.4141C50.5547 24.0391 50.9063 22.0938 50.4766 20.5156C50.4141 20.2813 50.3594 20.0469 50.3594 20C50.3594 19.9531 50.5781 19.8125 50.8438 19.6875C51.8125 19.2344 52.1094 18.7188 51.9297 17.8359C51.6953 16.6797 50.8828 15.5938 49.875 15.0859C48.7969 14.5469 48.2266 14.7969 47.586 16.0703L47.3125 16.6016L46.6953 16.375C45.8047 16.0469 44.836 15.9297 43.9688 16.0469C43.0547 16.1719 42.6641 16.3125 41.0469 17.1094C39 18.1172 37.2969 18.6797 35.3047 19.0234C32.7656 19.4531 30.6563 19.4219 28.1328 18.9141C26.2266 18.5313 24.9531 18.0859 22.7813 17.0313C21.9453 16.6328 21.0547 16.25 20.8125 16.1875C19.6641 15.8906 18.4297 15.9609 17.2813 16.3828C16.9375 16.5078 16.6563 16.6016 16.6406 16.5859C16.6328 16.5781 16.5235 16.3438 16.3985 16.0625C15.8516 14.8516 15.2188 14.5625 14.1953 15.0469ZM15.1094 17.7656C14.875 18.0156 14.5938 18.3359 14.4844 18.4844L14.2735 18.75L13.7969 18.5234C13.3438 18.3047 13.3281 18.2891 13.375 18.0547C13.5078 17.4297 14.0156 16.7188 14.5781 16.3594L14.9297 16.1406L15.2266 16.7344L15.5235 17.3281L15.1094 17.7656ZM49.9453 16.7969C50.2188 17.0938 50.5391 17.7031 50.6328 18.0938C50.6797 18.2813 50.6406 18.3125 50.2031 18.5234L49.7188 18.7578L49.5547 18.5234C49.461 18.3906 49.1797 18.0703 48.9297 17.8125L48.4766 17.3281L48.7656 16.7422L49.0625 16.1484L49.3672 16.3203C49.5313 16.4141 49.7969 16.625 49.9453 16.7969ZM20.5781 17.4766C20.8672 17.5625 21.3985 17.8047 21.7656 18.0078C25.0781 19.875 29.4922 20.875 33.211 20.6094C36.2891 20.3828 38.8438 19.6797 41.6953 18.2813C43.3672 17.4609 43.6953 17.3594 44.6953 17.3594C45.336 17.3672 45.5938 17.4063 46.1016 17.5781C47.5625 18.0781 48.6016 19.1172 49.1172 20.5938C49.2578 21.0078 49.2891 21.2734 49.2891 22C49.2891 22.7266 49.2578 22.9922 49.1172 23.4063C48.7813 24.375 48.1406 25.2578 47.4297 25.75C45.9922 26.7422 42.8125 28.125 40.4297 28.7969C39.4688 29.0703 37.6016 29.5 37.3906 29.5C37.3438 29.5 37.3125 29.1953 37.3125 28.7578V28.0156H37.711C38.3281 28.0156 38.6328 27.7891 38.6406 27.3281C38.6406 27.1563 38.5781 27.0078 38.4453 26.8828L38.2578 26.6875H32H25.7422L25.5547 26.8828C25.4219 27.0078 25.3594 27.1563 25.3594 27.3281C25.3672 27.7891 25.6719 28.0156 26.2891 28.0156H26.6875V28.7578C26.6875 29.1641 26.6563 29.5 26.6172 29.5C26.4531 29.5 24.9297 29.1641 24.1094 28.9453C21.7422 28.3203 19.1641 27.2656 17.2031 26.1406C16.2891 25.6094 15.9688 25.3438 15.5078 24.7344C14.9219 23.9609 14.6406 23.1641 14.5938 22.1563C14.5547 21.2109 14.6641 20.6563 15.0625 19.8203C15.4219 19.0625 16.3672 18.1328 17.1797 17.7422C18.2735 17.2266 19.4297 17.1328 20.5781 17.4766ZM29.3594 32.3672L29.3828 36.7266L29.6485 37.2188C29.9453 37.7656 30.3516 38.1563 30.8985 38.4219C31.4141 38.6797 32.586 38.6797 33.1016 38.4219C33.6485 38.1563 34.0547 37.7656 34.3516 37.2188L34.6172 36.7266L34.6406 32.3672L34.6641 28.0156H35.3203H35.9844V32.2578C35.9844 36.875 35.9766 36.9609 35.5313 37.8594C35.2735 38.3906 34.4375 39.2344 33.9063 39.5156C33.0781 39.9609 31.8906 40.0938 30.9453 39.8516C29.5938 39.5 28.3828 38.2266 28.1016 36.8594C28.0469 36.5859 28.0156 35 28.0156 32.2344V28.0156H28.6797H29.336L29.3594 32.3672ZM33.3281 28.9922V29.9688H32H30.6719V28.9922V28.0156H32H33.3281V28.9922ZM33.3281 33.7734C33.3281 36.0234 33.3125 36.2891 33.1797 36.5781C32.9531 37.0703 32.6172 37.2734 32 37.2734C31.3985 37.2734 31.0703 37.0859 30.8281 36.6094C30.6797 36.3203 30.6719 36.1406 30.6719 33.7969V31.2969H32H33.3281V33.7734ZM32.6875 41.9766L32.6641 42.6641H32H31.336L31.3125 41.9766L31.2891 41.2969H32H32.711L32.6875 41.9766ZM34.0313 47.3516V50.6719H32H29.9688V47.3516V44.0313H32H34.0313V47.3516Z" fill="black"/>
</g>
<defs>
<clipPath id="clip0_293_491">
<rect width="40" height="40" fill="white" transform="translate(12 12)"/>
</clipPath>
</defs>
</svg>
